<svg width="160" height="57" viewBox="0 0 160 57" fill="none" xmlns="http://www.w3.org/2000/svg">
<path d="M57.247 34.4756C58.5845 33.7765 60.0493 33.3232 61.5172 32.9268L61.978 33.3926C61.994 33.4746 61.981 33.5616 61.921 33.6286C60.626 35.1016 58.924 36.2276 57.052 36.8216C56.704 36.9956 56.353 37.1636 55.995 37.3186C55.664 37.4616 55.216 37.5796 54.895 37.3466C54.505 37.0626 54.618 36.5606 54.884 36.2346C55.498 35.4836 56.398 34.9206 57.247 34.4756Z" fill="#540F12"/>
<path d="M107.638 37.0256L107.631 37.4446C107.578 37.4856 107.509 37.5066 107.438 37.4976C107.421 37.5026 107.403 37.5066 107.386 37.5116C107.551 37.5736 107.568 37.7816 107.446 37.9016C106.02 39.3036 104.336 40.4906 102.489 41.2706C102.087 41.4406 101.628 41.5756 101.202 41.4086C100.874 41.2796 100.623 40.9876 100.619 40.6256C100.615 40.2106 100.925 39.8956 101.229 39.6566C101.615 39.3526 102.035 39.0936 102.468 38.8626C103.391 38.3716 104.386 38.0296 105.376 37.7016C105.761 37.5746 106.148 37.4576 106.536 37.3416C106.347 37.2956 106.16 37.2416 105.984 37.1786C105.725 37.0866 105.474 36.9716 105.234 36.8366C105.024 36.7186 104.797 36.5736 104.701 36.3406C104.504 35.8616 104.972 35.5446 105.397 35.5346C105.85 35.5236 106.31 35.7216 106.686 35.9606C107.091 36.2186 107.423 36.5946 107.638 37.0256Z" fill="#540F12"/>
<path d="M133.577 41.8799L133.974 42.2809C133.983 42.2839 133.991 42.2849 134 42.2879C134.215 42.3679 134.214 42.6479 134.06 42.7809C133.417 43.3389 132.653 43.7389 131.83 43.9589C131.086 44.1579 130.167 44.2699 129.417 44.0359C129.108 43.9389 128.821 43.7179 128.775 43.3779C128.728 43.0319 128.931 42.6899 129.212 42.5029C129.56 42.2709 129.999 42.2379 130.402 42.1859C130.906 42.1209 131.41 42.0639 131.916 42.0139C132.469 41.9598 133.023 41.9152 133.577 41.8799Z" fill="#540F12"/>
<path d="M13.36 55.4027C9.53197 55.4047 5.67298 55.2617 1.87798 55.8677C1.71298 55.8937 1.55099 55.9197 1.38799 55.9447C1.21999 56.0647 1.04097 56.1697 0.854965 56.2597C0.760965 56.3047 0.663957 56.3477 0.564957 56.3807C0.452957 56.4177 0.331965 56.4587 0.216965 56.4817C0.0629647 56.5017 -0.0370148 56.3357 0.0129852 56.2117C0.0619852 56.0907 0.114975 55.9717 0.170975 55.8527C0.115975 55.7507 0.122959 55.6267 0.254959 55.5387C0.291959 55.5137 0.329966 55.4897 0.367966 55.4647C0.527966 55.1727 0.708977 54.8917 0.916977 54.6317C0.964977 54.5717 1.02197 54.4997 1.08397 54.4547C1.12797 54.4227 1.18596 54.3857 1.24596 54.3657C2.66496 52.1907 4.35096 50.1767 6.14296 48.3117C8.39696 45.9667 10.913 43.8637 13.604 42.0397C16.375 40.1607 19.346 38.5767 22.456 37.3347C25.811 35.9947 29.325 35.0427 32.896 34.4977C36.468 33.9517 40.104 33.8157 43.707 34.0967C43.918 34.1127 44.129 34.1357 44.341 34.1557C47.424 33.2237 50.543 32.4147 53.697 31.7477C49.05 31.9287 44.388 32.0027 39.748 31.7927C38.362 31.7297 36.974 31.6227 35.61 31.3587C34.506 31.1447 33.219 30.8777 32.388 30.0587C31.703 29.3837 31.423 28.2487 32.082 27.4577C32.722 26.6897 33.886 26.4867 34.828 26.6327C35.901 26.7997 36.922 27.4467 37.358 28.4677C37.737 29.3547 37.661 30.4347 37.088 31.2127C37.093 31.2237 37.103 31.2297 37.107 31.2417C37.108 31.2447 37.107 31.2477 37.108 31.2497C38.213 31.3837 39.325 31.4467 40.437 31.4897C43.002 31.5887 45.57 31.5997 48.137 31.5757C50.509 31.5537 52.88 31.4827 55.252 31.4317C55.847 31.3157 56.442 31.2027 57.039 31.0977C58.119 30.9067 59.202 30.7367 60.287 30.5777C57.2097 30.5838 54.1266 30.3756 51.0847 29.9438L51.565 29.4687C51.79 29.5007 52.015 29.5377 52.24 29.5687C55.053 29.9467 57.89 30.1707 60.728 30.2077C61.516 30.2177 62.306 30.2147 63.095 30.2017C71.822 29.1537 80.669 29.1177 89.424 29.8357C88.068 29.2397 86.708 28.6517 85.33 28.1067C83.247 27.2837 81.135 26.5327 79.003 25.8457C78.79 25.7767 78.575 25.7117 78.362 25.6447C78.335 25.6517 78.306 25.6497 78.276 25.6367C76.558 25.8867 74.829 26.0607 73.102 26.2327C71.28 26.4137 69.456 26.5777 67.629 26.7077C64 26.9657 60.359 27.0967 56.722 26.9787C53.118 26.8607 49.544 26.4367 45.985 25.8707C42.484 25.3147 39.001 24.6467 35.492 24.1387C31.999 23.6337 28.474 23.2707 24.941 23.3667C24.518 23.3777 24.095 23.3967 23.672 23.4217C23.663 23.4267 23.654 23.4307 23.645 23.4357C23.282 23.6247 23.043 23.0357 23.403 22.8487C26.635 21.1667 30.086 19.9537 33.625 19.1027C37.192 18.2447 40.843 17.7667 44.5 17.5157C48.26 17.2577 52.056 17.1957 55.821 17.3897C59.678 17.5897 63.537 18.1627 67.183 19.4737C68.968 20.1157 70.691 20.9157 72.368 21.7997C74.019 22.6697 75.656 23.5947 77.232 24.5937C77.444 24.7277 77.655 24.8637 77.866 24.9997C82.047 26.3247 86.141 27.9207 90.116 29.7747C90.216 29.8217 90.315 29.8717 90.415 29.9207C91.691 30.0337 92.965 30.1687 94.237 30.3117C91.111 29.1117 88.079 27.6017 85.16 25.9787C83.573 25.0967 82.016 24.1597 80.487 23.1797C79.6136 22.6199 78.7396 22.0519 77.8842 21.4588L78.321 21.1977C78.974 21.6467 79.637 22.0827 80.298 22.5147C83.319 24.4867 86.464 26.2727 89.695 27.8767C91.442 28.7437 93.223 29.5327 95 30.3337C95 30.3237 95.003 30.3147 95.002 30.3047C95 30.2857 94.991 30.2657 94.985 30.2467C94.979 30.2267 94.973 30.2067 94.967 30.1857C94.959 30.1587 94.999 30.1407 95.009 30.1687C95.017 30.1907 95.025 30.2137 95.034 30.2367C95.04 30.2537 95.045 30.2787 95.056 30.2927C95.063 30.3017 95.072 30.3057 95.077 30.3167V30.3177C95.081 30.3207 95.088 30.3187 95.09 30.3257L95.103 30.3797C95.133 30.3937 95.164 30.4067 95.194 30.4207C101.04 31.1157 106.845 32.1167 112.605 33.3377C112.508 33.2977 112.41 33.2597 112.313 33.2187C111.254 32.7727 110.223 32.2607 109.222 31.6987C108.167 31.1067 107.145 30.4587 106.148 29.7747C105.354 29.3907 104.561 29.0077 103.739 28.6867C103.419 28.5617 103.095 28.4517 102.771 28.3407C101.772 28.1267 100.791 27.8217 99.84 27.4627C98.365 27.0807 96.872 26.7647 95.384 26.4367C91.662 25.6157 87.906 24.6457 84.731 22.4477C83.064 21.2937 81.558 19.9237 80.027 18.5987C78.457 17.2397 76.827 15.9847 75.065 14.8837C71.492 12.6527 67.623 10.9567 63.936 8.93069C60.526 7.05769 57.19 4.9487 54.584 2.0197C54.398 1.8107 54.225 1.58969 54.047 1.37269C53.839 1.25169 53.634 1.12669 53.431 0.995694C53.2 0.846694 53.422 0.476696 53.667 0.575696C53.773 0.442696 53.987 0.387696 54.122 0.562696C54.222 0.692696 54.33 0.816693 54.436 0.941693C54.515 0.979693 54.593 1.01769 54.672 1.05569C54.728 1.04569 54.787 1.05869 54.839 1.10969C54.856 1.12669 54.872 1.1437 54.889 1.1607C55.462 1.4377 56.034 1.71369 56.616 1.97169C57.591 2.40269 58.583 2.7947 59.586 3.1547C61.624 3.8857 63.707 4.4907 65.803 5.0297C69.906 6.0847 74.073 6.86869 78.175 7.92569C81.964 8.90169 85.72 10.1037 89.226 11.8607C92.662 13.5827 95.802 15.8617 98.276 18.8197C100.9 21.9567 102.871 25.5757 105.5 28.7107C105.57 28.7937 105.647 28.8707 105.717 28.9527C108.288 30.7987 111.032 32.3967 114.025 33.4657C114.45 33.6177 114.874 33.7677 115.296 33.9257C117.415 34.3997 119.527 34.9077 121.634 35.4317C121.8 35.4467 121.967 35.4577 122.133 35.4777C122.18 35.4837 122.197 35.5297 122.19 35.5697C122.47 35.6397 122.751 35.7057 123.031 35.7777C124.055 36.0377 125.078 36.3057 126.1 36.5747C125.515 36.2597 124.937 35.9297 124.371 35.6027C123.23 34.9417 122.112 34.2407 121.049 33.4587C119.924 32.6317 118.857 31.7107 117.897 30.6917C117.643 30.4677 117.39 30.2427 117.135 30.0237C116.466 29.4507 115.78 28.8977 115.079 28.3657C114.282 27.7607 113.463 27.1827 112.629 26.6287C112.621 26.6387 112.611 26.6467 112.603 26.6567C112.601 26.6587 112.6 26.6607 112.597 26.6627C111.524 27.9657 109.731 28.4907 108.121 27.9727C106.701 27.5157 105.269 26.1477 105.35 24.5547C105.387 23.8287 105.857 23.1847 106.619 23.1267C107.073 23.0917 107.505 23.2537 107.911 23.4407C108.349 23.6427 108.775 23.8777 109.199 24.1077C109.646 24.3507 110.09 24.6007 110.529 24.8587C109.901 24.3277 109.312 23.7527 108.792 23.1067C107.806 21.8817 106.99 20.3037 107.022 18.6917C107.036 17.9677 107.304 17.2047 107.94 16.7977C108.562 16.3997 109.291 16.5227 109.887 16.9057C110.545 17.3287 111.007 17.9947 111.39 18.6627C111.776 19.3367 112.077 20.0587 112.283 20.8087C112.74 22.4667 112.752 24.2217 112.305 25.8817C112.455 26.0047 112.605 26.1287 112.754 26.2527C113.245 26.5797 113.731 26.9137 114.208 27.2597C115.012 27.8427 115.792 28.4597 116.554 29.0967C116.38 28.8627 116.211 28.6237 116.049 28.3807C115.39 27.3887 114.798 26.3027 114.448 25.1597C114.114 24.0687 114.053 22.8487 114.737 21.8777C115.322 21.0477 116.352 20.6447 117.316 21.0447C118.281 21.4447 118.92 22.4297 119.218 23.3937C119.904 25.6127 119.216 28.1267 117.525 29.7077C118.583 30.9567 119.811 32.0587 121.123 33.0377C122.222 33.8577 123.378 34.6007 124.562 35.2927C125.527 35.8567 126.541 36.3577 127.495 36.9427C127.787 37.0207 128.079 37.1017 128.371 37.1807C128.881 37.2907 129.387 37.4177 129.888 37.5687C128.431 36.4167 127.187 34.9877 126.171 33.4387C125.423 32.2997 124.771 31.0627 124.276 29.7767L124.746 29.9187C124.829 30.1267 124.915 30.3337 125.005 30.5367C125.759 32.2527 126.772 33.8507 127.995 35.2697C128.7 36.0877 129.481 36.8417 130.292 37.5527C130.343 37.5967 130.348 37.6547 130.328 37.7027C130.371 37.7167 130.413 37.7317 130.456 37.7457C133.168 38.4927 135.874 39.2667 138.572 40.0677C137.079 39.3837 135.64 38.5417 134.402 37.4587C133.133 36.3487 132.1 35.0087 131.446 33.4497C130.728 31.7397 130.419 29.8997 129.829 28.1477C129.233 26.3787 128.196 24.8647 127.106 23.3697C126.028 21.8917 125.004 20.4087 124.258 18.7307C122.766 15.3767 122.148 11.7217 120.728 8.34369C119.577 5.60669 117.821 2.88269 115.155 1.42769C114.933 1.35369 114.713 1.27369 114.489 1.20469C114.048 1.06969 113.608 0.938692 113.171 0.791692C113.121 0.774692 113.09 0.743692 113.068 0.707692C112.888 0.671692 112.706 0.638698 112.526 0.599698C112.309 0.552698 112.217 0.206691 112.468 0.126691C113.142 -0.0873091 113.839 -0.014303 114.496 0.226697C114.813 0.342697 115.115 0.497691 115.406 0.667691C115.621 0.793691 115.845 0.937697 116.026 1.1157C116.899 1.4417 117.753 1.8257 118.57 2.2267C120.237 3.0447 121.823 4.0307 123.295 5.1607C126.243 7.4257 128.751 10.2697 130.607 13.4917C131.536 15.1047 132.299 16.8087 132.87 18.5807C133.533 20.6387 134.008 22.8457 135.284 24.6357C136.455 26.2777 138.226 27.3947 139.313 29.1047C140.443 30.8827 140.607 33.0237 140.975 35.0457C141.157 36.0447 141.398 37.0367 141.829 37.9607C142.225 38.8077 142.757 39.5867 143.389 40.2747C144.074 41.0217 144.886 41.6597 145.774 42.1617C146.605 42.4717 147.441 42.7617 148.272 43.0427C148.481 43.1137 148.685 43.1877 148.889 43.2647C149.089 43.2987 149.289 43.3297 149.491 43.3517C149.568 43.3597 149.58 43.4307 149.553 43.4837C151.417 44.0887 153.278 44.7007 155.132 45.3277C156.438 45.7697 157.744 46.2137 159.052 46.6497C159.12 46.6727 159.075 46.7727 159.008 46.7517C155.731 45.7407 152.458 44.7187 149.182 43.7037C146.06 42.9607 142.884 42.4617 139.678 42.2767C137.895 42.1737 136.108 42.1667 134.325 42.2577C134.208 42.2637 134.091 42.2737 133.974 42.2807L133.577 41.8797C136.991 41.6625 140.427 41.8019 143.811 42.3017C144.429 42.3927 145.045 42.5007 145.658 42.6177C140.982 41.1807 136.297 39.7737 131.586 38.4557C131.532 38.5667 131.41 38.6467 131.262 38.5877C131.232 38.5757 131.201 38.5657 131.171 38.5537C127.997 40.0267 125.416 42.4497 122.631 44.5197C121.145 45.6237 119.579 46.6147 117.863 47.3237C115.986 48.0997 114.003 48.5807 112.024 49.0147C109.973 49.4637 107.924 49.8937 105.91 50.4907C103.861 51.0977 101.846 51.8127 99.836 52.5367C95.909 53.9507 91.968 55.4097 87.845 56.1387C86.312 56.4097 84.759 56.5867 83.207 56.6307C82.374 56.6827 81.539 56.6717 80.709 56.5757C79.139 56.4587 77.583 56.1807 76.063 55.6907C75.589 55.5377 75.123 55.3637 74.663 55.1717C74.334 55.0337 74.554 54.5207 74.883 54.6617C75.235 54.8127 75.592 54.9477 75.952 55.0737C76.424 55.1237 76.898 55.1597 77.372 55.1887C79.034 54.9067 80.681 54.6127 82.307 54.1377C84.148 53.5997 85.943 52.9117 87.692 52.1287C91.249 50.5367 94.608 48.5527 97.938 46.5387C101.293 44.5087 104.638 42.4497 108.159 40.7127C111.604 39.0137 115.222 37.6627 119.023 37.0367C121.05 36.7027 123.12 36.5867 125.17 36.7307C123.751 36.3637 122.329 36.0087 120.905 35.6637C119.341 35.6977 117.779 35.7077 116.217 35.8447C114.262 36.0157 112.319 36.3177 110.402 36.7397C109.471 36.9447 108.548 37.1827 107.631 37.4447L107.638 37.0257C107.918 36.9487 108.197 36.8687 108.478 36.7967C110.581 36.2627 112.722 35.8777 114.879 35.6427C116.088 35.5107 117.3 35.4217 118.516 35.3817C118.898 35.3697 119.28 35.3627 119.662 35.3607C117.593 34.8707 115.518 34.4097 113.437 33.9737C112.777 33.9347 112.116 33.8587 111.462 33.8117C110.461 33.7387 109.458 33.6777 108.455 33.6377C106.437 33.5577 104.411 33.5727 102.4 33.7687C101.507 33.8557 100.62 33.9877 99.74 34.1577C100.269 34.7167 100.398 35.5657 100.174 36.2957C99.905 37.1717 99.188 37.8517 98.409 38.2927C97.594 38.7537 96.583 38.9357 95.739 38.4437C94.994 38.0097 94.681 37.1757 94.937 36.3557C95.212 35.4757 95.971 34.9177 96.8 34.5967C96.969 34.5307 97.144 34.4777 97.318 34.4217C96.368 34.5387 95.408 34.5967 94.449 34.5997C93.941 35.0067 93.323 35.3497 92.72 35.5577C92.073 35.7797 91.348 35.8557 90.697 35.6087C90.153 35.4017 89.666 34.9747 89.491 34.4077C89.326 33.8727 89.415 33.2667 89.797 32.8457C89.805 32.8317 89.81 32.8167 89.819 32.8027C90.326 32.0247 91.581 32.0697 92.36 32.2867C93.379 32.5707 94.294 33.3057 94.704 34.2927C95.075 34.2927 95.446 34.2867 95.816 34.2707C97.076 34.2157 98.333 34.0717 99.578 33.8697C99.6 33.8657 99.617 33.8727 99.63 33.8827C99.714 33.8677 99.798 33.8517 99.881 33.8367C102.136 33.4377 104.43 33.3137 106.718 33.3387C107.979 33.3527 109.239 33.4077 110.498 33.4867C110.791 33.5047 111.084 33.5277 111.378 33.5487C105.812 32.4357 100.205 31.5327 94.558 30.9147C94.267 30.8827 93.976 30.8577 93.685 30.8277C92.354 31.0077 91.032 31.2267 89.719 31.5077C89.599 31.5517 89.476 31.5897 89.359 31.6387C89.124 31.7387 88.892 31.8717 88.641 31.9277C87.733 33.2317 86.757 34.4997 85.747 35.7217C84.594 37.1177 83.359 38.4537 81.992 39.6427C80.568 40.8817 78.992 41.9007 77.321 42.7727C75.613 43.6647 73.835 44.4087 72.079 45.1997C68.488 46.8157 65.079 48.8227 61.427 50.3037C57.728 51.8037 53.834 52.4567 49.88 52.8477C46.212 53.2097 42.523 53.4277 38.894 54.1007C38.658 54.1497 38.424 54.2037 38.188 54.2477C38.081 54.2677 37.973 54.2837 37.865 54.3017C37.428 54.3947 36.992 54.4937 36.559 54.6037C36.281 54.6737 36.151 54.1877 36.43 54.1117C37.075 53.9367 37.725 53.7897 38.376 53.6537C39.061 53.4127 39.756 53.2017 40.436 52.9457C41.281 52.6277 42.11 52.2697 42.924 51.8787C44.569 51.0887 46.149 50.1687 47.677 49.1737C50.763 47.1657 53.641 44.8657 56.585 42.6607C59.562 40.4307 62.623 38.2767 65.979 36.6487C69.295 35.0407 72.836 33.9567 76.43 33.1707C80.075 32.3737 83.791 31.8187 87.5 31.4107C87.841 31.3737 88.181 31.3417 88.522 31.3117C88.865 31.0077 89.274 30.7857 89.695 30.6067C89.797 30.5637 89.902 30.5247 90.007 30.4887C86.022 30.1627 82.023 29.9867 78.025 29.9857C73.734 30.6777 69.456 31.4127 65.247 32.5157C64.159 32.8007 63.064 33.0837 61.978 33.3927L61.5171 32.9268C62.1026 32.7687 62.6885 32.6197 63.267 32.4677C65.543 31.8687 67.845 31.3597 70.155 30.9097C71.981 30.5547 73.816 30.2427 75.66 30.0007C72.772 30.0507 69.887 30.1937 67.009 30.4447C62.025 31.4107 57.15 32.8367 52.483 34.8607C51.168 35.4307 49.869 36.0417 48.594 36.6967C47.726 37.1427 46.852 37.5967 46.004 38.0907C47.231 38.4987 47.71 39.8957 47.611 41.1167C47.501 42.4707 46.972 44.0747 45.768 44.8387C44.874 45.4057 43.833 45.3517 43.042 44.7647C42.948 44.8097 42.821 44.7777 42.82 44.6457C42.82 44.6267 42.823 44.6087 42.824 44.5907C42.722 44.4957 42.623 44.3937 42.534 44.2787C41.701 43.2077 41.805 41.7647 42.444 40.6257C43.16 39.3497 44.394 38.5367 45.635 37.8307C47.006 37.0497 48.41 36.3237 49.832 35.6407C52.672 34.2777 55.607 33.1117 58.611 32.1637C60.295 31.6317 62 31.1657 63.722 30.7817C62.925 30.8747 62.129 30.9727 61.334 31.0827C55.882 31.8357 50.524 33.0437 45.269 34.6087C45.227 34.7247 45.126 34.8187 44.969 34.8017C44.884 34.7927 44.799 34.7867 44.714 34.7787C43.362 35.1887 42.015 35.6157 40.676 36.0717C39.727 36.7377 38.893 37.5537 38.147 38.4527C38.17 38.4437 38.191 38.4717 38.17 38.4907C38.086 38.5657 38.01 38.6467 37.929 38.7237C37.335 39.4697 36.796 40.2667 36.308 41.0867C35.002 43.2797 33.963 45.6507 32.553 47.7787C32.453 47.9817 32.317 48.1707 32.159 48.3447C31.841 48.7917 31.509 49.2297 31.145 49.6467C29.063 52.0257 26.224 53.5217 23.204 54.3487C19.994 55.2277 16.672 55.4017 13.36 55.4027ZM33.333 30.3507C34.346 30.8547 35.561 31.0417 36.674 31.1967C36.629 31.1557 36.592 31.1097 36.553 31.0647C36.201 31.0277 35.858 30.8127 35.59 30.6027C35.209 30.3057 34.907 29.9227 34.616 29.5407C34.301 29.1267 33.992 28.6957 33.579 28.3727C33.369 28.2087 33.137 28.0737 32.885 27.9867C32.634 27.9007 32.395 27.9127 32.136 27.8967C31.604 28.8567 32.485 29.9297 33.333 30.3507ZM33.61 27.1327C33.435 27.1097 33.24 27.1377 33.06 27.1207C32.775 27.2347 32.522 27.4047 32.322 27.6347C32.691 27.6077 33.091 27.7677 33.392 27.9457C33.817 28.1967 34.157 28.5607 34.464 28.9427C34.795 29.3537 35.092 29.7957 35.472 30.1637C35.65 30.3357 35.844 30.4957 36.059 30.6207C36.141 30.6687 36.226 30.7057 36.312 30.7397C36.229 30.6067 36.154 30.4687 36.092 30.3237C35.855 29.7707 35.74 29.1757 35.511 28.6197C35.287 28.0747 34.918 27.6167 34.38 27.3587C34.136 27.2427 33.876 27.1687 33.61 27.1327ZM37.078 28.6647C36.72 27.7527 35.837 27.1607 34.897 26.9817C34.649 26.9347 34.378 26.9137 34.103 26.9207C34.188 26.9487 34.275 26.9747 34.357 27.0117C34.848 27.2327 35.267 27.5957 35.542 28.0597C35.858 28.5947 35.992 29.1997 36.197 29.7787C36.295 30.0557 36.419 30.3247 36.576 30.5727C36.656 30.6997 36.745 30.8237 36.85 30.9317C36.857 30.9387 36.864 30.9457 36.872 30.9527C37.306 30.2827 37.373 29.4157 37.078 28.6647ZM28.262 21.3877C27.7 21.5977 27.141 21.8167 26.588 22.0507C30.16 21.3487 33.767 20.8347 37.394 20.5237C41.884 20.1387 46.399 20.0487 50.901 20.2437C55.416 20.4397 59.919 20.9297 64.371 21.7047C68.087 22.3517 71.765 23.2087 75.388 24.2567C74.051 23.7077 72.715 23.1607 71.354 22.6717C69.766 22.1017 68.157 21.5907 66.531 21.1407C63.304 20.2467 60.013 19.5877 56.691 19.1667C53.365 18.7437 50.008 18.5567 46.656 18.6067C43.308 18.6577 39.963 18.9457 36.657 19.4727C33.821 19.9257 31.017 20.5777 28.262 21.3877ZM68.307 20.4437C64.742 19.0117 60.97 18.3117 57.148 18.0367C53.395 17.7667 49.608 17.8097 45.853 18.0207C42.237 18.2237 38.63 18.6477 35.086 19.4057C34.689 19.4907 34.293 19.5807 33.898 19.6757C34.375 19.5827 34.852 19.4927 35.329 19.4077C38.657 18.8137 42.029 18.4637 45.407 18.3557C48.751 18.2487 52.102 18.3787 55.428 18.7457C58.788 19.1167 62.123 19.7277 65.395 20.5767C68.642 21.4197 71.847 22.4817 74.927 23.8147C75.146 23.9097 75.362 24.0117 75.579 24.1117C73.216 22.7697 70.838 21.4597 68.307 20.4437ZM65.871 22.5257C61.466 21.7067 57.009 21.1697 52.536 20.9167C48.031 20.6627 43.511 20.6967 39.011 21.0267C36.214 21.2317 33.425 21.5497 30.653 21.9797C32.192 22.0057 33.73 22.0997 35.262 22.2437C38.626 22.5607 41.967 23.0667 45.307 23.5687C48.666 24.0737 52.029 24.5507 55.418 24.8057C58.876 25.0657 62.346 25.1387 65.813 25.1117C67.757 25.0967 69.701 25.0517 71.644 24.9907C72.989 24.9487 74.342 24.8697 75.691 24.8497C72.457 23.9217 69.179 23.1407 65.871 22.5257ZM76.125 24.4207C76.125 24.4357 76.126 24.4507 76.119 24.4637C76.173 24.4797 76.228 24.4937 76.282 24.5097C76.23 24.4807 76.177 24.4507 76.125 24.4207ZM76.452 25.0697C75.049 25.1827 73.633 25.2057 72.229 25.2547C70.506 25.3157 68.782 25.3587 67.058 25.3827C63.638 25.4317 60.215 25.3957 56.8 25.1907C53.398 24.9867 50.023 24.5647 46.653 24.0687C43.31 23.5757 39.969 23.0137 36.604 22.6907C34.702 22.5077 32.793 22.3887 30.882 22.3767C29.827 22.3697 28.777 22.4107 27.727 22.4747C27.168 22.5777 26.611 22.6857 26.054 22.7977C28.727 22.7967 31.398 23.0247 34.048 23.3747C37.561 23.8377 41.041 24.5147 44.532 25.1167C48.068 25.7267 51.616 26.2417 55.201 26.4357C58.865 26.6347 62.538 26.5537 66.198 26.3307C69.854 26.1077 73.499 25.7407 77.143 25.3837C77.245 25.3737 77.347 25.3677 77.449 25.3597C77.12 25.2577 76.785 25.1677 76.452 25.0697ZM104.683 28.7277C104.63 28.6887 104.579 28.6477 104.526 28.6087C104.474 28.6037 104.422 28.5977 104.37 28.5927C104.473 28.6397 104.579 28.6797 104.683 28.7277ZM63.131 7.96669C66.71 10.0067 70.485 11.6797 74.028 13.7857C75.823 14.8527 77.537 16.0357 79.141 17.3737C80.687 18.6637 82.146 20.0597 83.748 21.2817C85.312 22.4737 87 23.4487 88.832 24.1657C90.625 24.8677 92.494 25.3487 94.368 25.7767C94.542 25.8167 94.718 25.8547 94.893 25.8937C94.413 25.7237 93.94 25.5317 93.478 25.3177C92.027 24.6457 90.668 23.7847 89.382 22.8387C86.579 20.7757 84.094 18.3067 81.211 16.3477C78.376 14.4217 75.247 12.9907 72.099 11.6607C69.062 10.3777 65.982 9.1747 63.044 7.6737C61.723 6.9987 60.435 6.25469 59.204 5.42669C60.461 6.35669 61.785 7.19869 63.131 7.96669ZM62.269 6.8817C65.117 8.4477 68.114 9.67969 71.108 10.9307C74.191 12.2197 77.286 13.5457 80.128 15.3197C83.048 17.1427 85.539 19.5107 88.226 21.6417C90.78 23.6677 93.607 25.5167 96.847 26.1857C96.925 26.2017 97.003 26.2177 97.08 26.2337C96.144 25.7567 95.23 25.2357 94.341 24.6787C90.926 22.5407 87.861 19.9127 84.645 17.4997C83.008 16.2707 81.327 15.0927 79.552 14.0717C78.021 13.1917 76.424 12.4297 74.802 11.7317C71.538 10.3267 68.171 9.17669 64.899 7.78969C62.745 6.87669 60.62 5.8467 58.643 4.5877C59.798 5.4317 61.014 6.1927 62.269 6.8817ZM57.378 3.2797C59.395 4.7717 61.608 5.9767 63.91 7.0067C67.125 8.4447 70.458 9.59169 73.713 10.9317C75.343 11.6027 76.956 12.3197 78.513 13.1467C80.233 14.0597 81.868 15.1177 83.448 16.2547C86.708 18.6007 89.737 21.2547 93.054 23.5237C94.879 24.7727 96.805 25.9087 98.836 26.7867C100.465 27.1817 102.076 27.6417 103.624 28.2707C103.815 28.3057 104.008 28.3337 104.2 28.3627C103.954 28.1777 103.707 27.9947 103.465 27.8057C99.706 24.8677 96.3 21.5137 92.614 18.4877C90.768 16.9717 88.85 15.5347 86.812 14.2857C84.872 13.0977 82.814 12.1147 80.703 11.2697C76.504 9.5877 72.12 8.44369 67.793 7.15069C64.263 6.09569 60.684 4.9477 57.378 3.2797ZM78.15 8.42669C76.982 8.13269 75.809 7.85869 74.633 7.59569C72.993 7.24469 71.346 6.92569 69.705 6.59169C67.671 6.17869 65.627 5.75869 63.618 5.22069C64.572 5.55469 65.533 5.8707 66.498 6.1727C70.796 7.5157 75.168 8.6327 79.394 10.1977C81.49 10.9747 83.548 11.8637 85.51 12.9377C87.583 14.0727 89.532 15.4167 91.391 16.8727C95.149 19.8147 98.548 23.1777 102.215 26.2277C102.674 26.6097 103.139 26.9857 103.609 27.3567C102.856 26.4567 102.114 25.5477 101.353 24.6547C100.216 23.3207 99.051 22.0137 97.839 20.7457C95.419 18.2127 92.848 15.8377 89.982 13.8137C87.077 11.7627 83.908 10.1857 80.519 9.10769C79.735 8.85869 78.945 8.63569 78.15 8.42669ZM99.008 20.3707C97.797 18.7717 96.451 17.2947 94.91 16.0087C93.431 14.7747 91.815 13.7107 90.121 12.7967C88.564 11.9567 86.944 11.2437 85.291 10.6177C86.635 11.2687 87.942 12.0027 89.2 12.8347C92.097 14.7517 94.706 17.0817 97.127 19.5657C99.577 22.0797 101.851 24.7777 104.053 27.5097C104.178 27.6647 104.296 27.8227 104.418 27.9787C104.564 28.0907 104.707 28.2057 104.854 28.3157C102.681 25.8517 100.994 22.9927 99.008 20.3707ZM107.55 27.2217C108.995 28.0347 110.789 27.7667 112.012 26.7007C110.967 27.1427 109.817 27.2417 108.702 27.0167C108.135 26.9017 107.58 26.7077 107.066 26.4427C106.761 26.2857 106.448 26.1007 106.168 25.8807C106.498 26.4357 106.993 26.9087 107.55 27.2217ZM105.885 24.1487C105.738 24.5177 105.788 24.9737 105.915 25.3577C106.347 25.6467 106.743 25.9677 107.216 26.1977C107.715 26.4407 108.243 26.6107 108.788 26.7147C109.821 26.9117 110.909 26.8567 111.92 26.5607C109.809 26.1377 107.767 25.2697 105.923 24.1817C105.907 24.1727 105.896 24.1607 105.885 24.1487ZM108.385 24.1357C107.761 23.8147 106.696 23.1797 106.076 23.8337C106.061 23.8497 106.052 23.8687 106.038 23.8847C106.042 23.8867 106.045 23.8857 106.048 23.8877C107.995 25.0357 110.078 25.7957 112.25 26.3807C111.745 26.0517 111.235 25.7297 110.717 25.4227C109.953 24.9707 109.175 24.5417 108.385 24.1357ZM107.829 17.3657C107.523 17.7307 107.384 18.2477 107.378 18.7177C107.359 20.1937 108.104 21.6387 108.992 22.7727C109.633 23.5897 110.396 24.2927 111.189 24.9627C110.403 24.0477 109.737 23.0367 109.206 21.9467C108.497 20.4887 108.137 18.9477 107.828 17.3687C107.828 17.3667 107.829 17.3657 107.829 17.3657ZM108.616 16.9197C108.558 16.9277 108.5 16.9337 108.441 16.9507C108.253 17.0077 108.093 17.1027 107.958 17.2237C108.023 17.2207 108.089 17.2547 108.093 17.3347C108.165 18.8907 108.706 20.4347 109.382 21.8237C110.002 23.0967 110.823 24.2667 111.784 25.3067C110.03 22.8657 108.987 19.8907 108.616 16.9197ZM111.858 24.9637C111.846 24.7447 111.835 24.5257 111.812 24.3087C111.773 23.9407 111.718 23.5747 111.65 23.2117C111.501 22.4207 111.282 21.6437 111 20.8897C110.512 19.5897 109.818 18.3787 108.97 17.2817C109.39 20.0327 110.416 22.5897 111.858 24.9637ZM112.104 21.6387C111.848 20.2687 111.277 18.8237 110.339 17.7727C110.014 17.4087 109.564 17.0437 109.07 16.9357C109.999 18.1107 110.747 19.4237 111.27 20.8277C111.543 21.5617 111.757 22.3177 111.908 23.0857C112.007 23.5887 112.105 24.1317 112.144 24.6667C112.302 23.6657 112.291 22.6387 112.104 21.6387ZM115.014 22.1947C114.336 23.1847 114.559 24.4457 114.96 25.4977C115.353 26.5287 115.895 27.5047 116.524 28.4097C116.542 28.4357 116.563 28.4607 116.582 28.4867C115.891 26.7017 115.668 24.6937 115.832 22.8187C115.87 22.3817 115.86 21.7557 116.15 21.3917C116.153 21.3887 116.156 21.3867 116.158 21.3837C115.714 21.4837 115.306 21.7677 115.014 22.1947ZM116.991 21.8797C116.896 21.5507 116.505 21.2767 116.309 21.6847C116.113 22.0927 116.121 22.6617 116.088 23.1067C116.011 24.1467 116.066 25.1937 116.243 26.2217C116.421 27.2577 116.747 28.2437 117.13 29.2167C117.152 29.2437 117.171 29.2727 117.193 29.2997C117.208 29.2867 117.219 29.2707 117.234 29.2567C117.201 28.7727 117.289 28.2617 117.31 27.7807C117.336 27.1947 117.344 26.6087 117.335 26.0217C117.318 24.8957 117.225 23.7797 117.101 22.6617C117.071 22.4027 117.063 22.1297 116.991 21.8797ZM118.906 24.1337C118.74 23.1987 118.311 22.2407 117.518 21.6757C117.501 21.6637 117.483 21.6547 117.466 21.6437C118.129 22.6877 118.483 23.9297 118.566 25.1567C118.613 25.8577 118.574 26.5687 118.444 27.2587C118.411 27.4357 118.371 27.6117 118.325 27.7857C118.906 26.6747 119.127 25.3747 118.906 24.1337ZM117.561 28.2547C117.553 28.4757 117.555 28.7067 117.538 28.9347C117.574 28.8947 117.604 28.8497 117.639 28.8077C117.721 28.6117 117.823 28.4177 117.893 28.2237C118.005 27.9097 118.095 27.5877 118.164 27.2617C118.308 26.5797 118.357 25.8827 118.314 25.1877C118.231 23.8607 117.803 22.6147 117.14 21.4727C117.133 21.4697 117.126 21.4657 117.118 21.4627C117.244 21.6337 117.298 21.8447 117.33 22.0517C117.382 22.3837 117.411 22.7217 117.439 23.0567C117.494 23.7077 117.525 24.3597 117.551 25.0117C117.581 25.7367 117.587 26.4607 117.582 27.1857C117.58 27.5427 117.573 27.8987 117.561 28.2547ZM126.314 21.6697C127.317 23.1637 128.445 24.5767 129.286 26.1737C129.819 27.1867 130.177 28.2647 130.497 29.3567C130.485 29.2397 130.472 29.1227 130.457 29.0067C130.379 28.4317 130.286 27.8587 130.163 27.2907C129.919 26.1647 129.552 25.0537 128.992 24.0427C127.884 22.0417 126.066 20.5827 124.71 18.7667C125.17 19.7727 125.694 20.7457 126.314 21.6697ZM123.866 16.6667C123.914 16.8067 123.971 16.9427 124.022 17.0817C124.262 17.5677 124.549 18.0287 124.867 18.4677C125.543 19.3997 126.343 20.2307 127.113 21.0827C127.869 21.9197 128.597 22.7827 129.148 23.7727C129.697 24.7587 130.061 25.8357 130.308 26.9347C130.449 27.5627 130.556 28.1987 130.633 28.8377C130.692 29.3257 130.765 29.8297 130.776 30.3267C130.877 30.6827 130.978 31.0387 131.084 31.3927C131.117 31.5007 131.152 31.6077 131.186 31.7147C131.02 30.5137 131.078 29.2617 130.97 28.0737C130.822 26.4457 130.307 24.9027 129.559 23.4547C128.062 20.5567 125.787 18.1897 123.974 15.5027C123.626 14.9867 123.308 14.4507 123.006 13.9047C123.277 14.8327 123.554 15.7567 123.866 16.6667ZM139.88 31.2487C139.575 30.2347 139.103 29.3127 138.424 28.4977C137.761 27.7017 136.978 27.0177 136.248 26.2847C135.54 25.5737 134.911 24.8147 134.425 23.9327C133.903 22.9847 133.541 21.9597 133.217 20.9297C132.901 19.9237 132.617 18.9077 132.256 17.9157C132.072 17.4107 131.868 16.9147 131.653 16.4227C131.84 17.0447 132.002 17.6727 132.145 18.3057C132.524 19.9957 132.818 21.7337 133.488 23.3407C134.887 26.6957 137.605 29.2627 139.442 32.3567C139.862 33.0637 140.239 33.7937 140.548 34.5467C140.361 33.4397 140.204 32.3247 139.88 31.2487ZM141.289 37.5127C141.296 37.6027 141.31 37.6917 141.314 37.7827C141.315 37.7977 141.292 37.8017 141.29 37.7857C141.27 37.6297 141.242 37.4777 141.216 37.3247C140.993 36.7087 140.839 36.0757 140.712 35.4367C139.783 32.8607 138.017 30.6417 136.369 28.4537C135.318 27.0587 134.29 25.6317 133.538 24.0487C132.805 22.5037 132.412 20.8667 132.054 19.2027C131.853 18.2667 131.652 17.3287 131.371 16.4127C131.086 15.4837 130.662 14.6467 130.255 13.7707C130.241 13.7397 130.247 13.7137 130.26 13.6907C128.686 10.9947 126.646 8.57269 124.265 6.55469C122.783 5.29869 121.176 4.20769 119.475 3.29069C121.173 4.56969 122.695 6.09669 124.036 7.73369C126.467 10.7007 128.299 14.1207 129.735 17.6657C130.504 19.5637 131.173 21.5007 131.771 23.4587C132.353 25.3637 132.845 27.2937 133.39 29.2097C133.91 31.0387 134.506 32.8677 135.44 34.5327C136.316 36.0947 137.506 37.4417 138.911 38.5487C140.575 39.8597 142.468 40.8257 144.429 41.6307C143.033 40.5687 141.92 39.1337 141.289 37.5127ZM142.668 41.2987C141.707 40.8467 140.769 40.3477 139.88 39.7647C138.457 38.8317 137.165 37.6937 136.141 36.3287C135.012 34.8237 134.241 33.0807 133.643 31.3057C133.021 29.4627 132.567 27.5687 132.038 25.6977C131.481 23.7267 130.872 21.7687 130.168 19.8437C128.812 16.1327 127.07 12.5307 124.714 9.34569C123.64 7.89369 122.452 6.52369 121.13 5.29069C120.033 4.26769 118.846 3.3717 117.6 2.5477C117.649 2.5957 117.699 2.64269 117.747 2.69069C118.849 3.81569 119.713 5.15169 120.422 6.55269C121.351 8.38969 121.968 10.3497 122.545 12.3227C122.622 12.5117 122.704 12.6987 122.794 12.8827C123.151 13.6137 123.569 14.3107 124.009 14.9937C124.877 16.3407 125.857 17.6097 126.817 18.8917C128.688 21.3917 130.582 24.0867 131.065 27.2457C131.209 28.1867 131.218 29.1407 131.26 30.0897C131.304 31.0867 131.425 32.0467 131.678 33.0137C131.682 33.0307 131.676 33.0437 131.673 33.0587C132.126 34.1517 132.706 35.1747 133.507 36.0927C135.762 38.6767 138.922 40.0317 142.097 41.1267C142.287 41.1847 142.478 41.2397 142.668 41.2987ZM98.553 52.5227C100.531 51.8117 102.506 51.0907 104.51 50.4557C106.483 49.8297 108.482 49.3267 110.505 48.8907C112.504 48.4597 114.516 48.0507 116.455 47.3927C118.275 46.7747 119.954 45.8987 121.531 44.8037C124.448 42.7777 127.021 40.1797 130.249 38.6287C130.379 38.5667 130.511 38.5097 130.642 38.4507C130.637 38.4507 130.633 38.4507 130.629 38.4507C129.052 39.0647 127.509 39.7207 126.009 40.5107C124.434 41.3397 122.909 42.2597 121.372 43.1567C119.867 44.0347 118.354 44.8997 116.786 45.6607C115.14 46.4597 113.438 47.1097 111.682 47.6237C108.039 48.6897 104.267 49.2667 100.657 50.4537C97.032 51.6457 93.697 53.5387 90.152 54.9297C89.536 55.1717 88.907 55.3987 88.268 55.6047C91.787 54.9347 95.189 53.7327 98.553 52.5227ZM78.666 55.7807C80.666 56.1527 82.725 56.2217 84.76 56.0697C86.226 55.8477 87.665 55.4557 89.061 54.9587C92.618 53.6927 95.914 51.8007 99.457 50.4987C102.997 49.1967 106.732 48.5947 110.368 47.6357C112.148 47.1667 113.899 46.5987 115.584 45.8527C117.177 45.1467 118.71 44.3137 120.226 43.4567C123.262 41.7397 126.257 39.8807 129.535 38.6517C129.74 38.5747 129.945 38.5027 130.152 38.4357C128.575 38.3777 127.001 38.4037 125.428 38.5757C123.545 38.7817 121.674 39.1407 119.842 39.6157C116.084 40.5887 112.468 42.0617 108.981 43.7547C105.457 45.4657 102.085 47.4557 98.649 49.3317C95.18 51.2257 91.627 53.0167 87.849 54.2097C86.007 54.7917 84.118 55.2367 82.201 55.4817C80.927 55.6447 79.616 55.7317 78.318 55.6907C78.433 55.7207 78.55 55.7507 78.666 55.7807ZM120.146 37.3827C116.352 37.8677 112.701 39.1027 109.241 40.7057C105.685 42.3537 102.323 44.3797 98.967 46.3947C95.667 48.3767 92.358 50.3587 88.867 51.9897C85.752 53.4447 82.439 54.6777 79.026 55.2237C79.658 55.2227 80.289 55.2057 80.918 55.1557C82.869 54.9987 84.801 54.6227 86.683 54.0877C90.491 53.0047 94.075 51.2837 97.554 49.4187C101.01 47.5657 104.395 45.5817 107.91 43.8397C111.372 42.1237 114.952 40.6097 118.676 39.5587C122.307 38.5337 126.067 37.9777 129.845 38.1547C129.94 38.1587 130.035 38.1707 130.13 38.1767C126.922 37.1327 123.489 36.9557 120.146 37.3827ZM89.811 34.4467C90.037 34.9577 90.557 35.2817 91.087 35.4017C91.69 35.5387 92.324 35.4107 92.887 35.1797C92.996 35.1347 93.097 35.0767 93.201 35.0237C92.505 35.2357 91.773 35.3127 91.062 35.0857C90.683 34.9647 90.325 34.7517 90.046 34.4687C89.921 34.3427 89.792 34.1857 89.702 34.0137C89.713 34.1597 89.749 34.3067 89.811 34.4467ZM90.003 33.9577C89.886 33.8497 89.797 33.7187 89.741 33.5777C89.738 33.5877 89.738 33.5977 89.736 33.6077C89.867 33.8627 89.969 34.1197 90.178 34.3377C90.45 34.6207 90.809 34.8167 91.186 34.9217C92.093 35.1747 93.086 34.8597 93.951 34.5897C93.959 34.5867 93.965 34.5917 93.972 34.5907C93.977 34.5877 93.982 34.5847 93.988 34.5817C93.185 34.5687 92.384 34.5257 91.594 34.4367C91.055 34.3747 90.423 34.3447 90.003 33.9577ZM94.016 34.2727C93.486 33.8837 92.872 33.5547 92.237 33.3967C91.542 33.2237 90.814 33.2167 90.115 33.3627C90.086 33.3687 90.064 33.3617 90.047 33.3477C90.12 33.6497 90.505 33.8907 90.812 33.9637C91.322 34.0847 91.865 34.1187 92.385 34.1727C92.928 34.2297 93.472 34.2577 94.016 34.2727ZM92.583 32.7407C91.911 32.4727 90.729 32.2957 90.177 32.9097C90.082 33.0157 90.044 33.1197 90.036 33.2197C90.049 33.2017 90.066 33.1867 90.092 33.1817C91.505 32.8907 93.097 33.2257 94.21 34.1617C93.84 33.5197 93.281 33.0187 92.583 32.7407ZM96.71 34.9847C95.946 35.3377 95.221 35.9917 95.193 36.8917C95.188 37.0397 95.215 37.1757 95.255 37.3057C95.357 37.0677 95.538 36.8357 95.657 36.6997C95.995 36.3127 96.378 35.9557 96.777 35.6337C97.175 35.3117 97.599 35.0277 98.044 34.7757C98.271 34.6477 98.502 34.5277 98.739 34.4167C98.816 34.3807 98.898 34.3397 98.982 34.2997C98.208 34.4637 97.423 34.6557 96.71 34.9847ZM98.996 34.6677C98.779 34.7607 98.565 34.8627 98.355 34.9717C97.926 35.1947 97.515 35.4517 97.12 35.7317C96.739 36.0017 96.371 36.2977 96.034 36.6217C95.86 36.7897 95.694 36.9707 95.566 37.1767C95.514 37.2617 95.472 37.3517 95.438 37.4447C95.533 37.3977 95.629 37.3537 95.72 37.3057C95.927 37.1937 96.131 37.0757 96.332 36.9517C96.713 36.7157 97.081 36.4597 97.435 36.1847C98.045 35.7097 98.597 35.1697 99.134 34.6157C99.087 34.6317 99.04 34.6487 98.996 34.6677ZM97.594 36.3937C97.233 36.6787 96.857 36.9437 96.467 37.1867C96.277 37.3057 96.084 37.4187 95.888 37.5277C95.76 37.5987 95.628 37.6777 95.492 37.7407C95.549 37.8117 95.621 37.8697 95.691 37.9287C95.881 37.8667 96.081 37.8627 96.279 37.8257C96.515 37.7817 96.748 37.7197 96.973 37.6347C97.424 37.4647 97.845 37.2107 98.204 36.8897C98.881 36.2847 99.288 35.4407 99.424 34.5507C98.908 35.2497 98.276 35.8547 97.594 36.3937ZM99.573 34.6867C99.474 35.5897 99.04 36.4437 98.383 37.0717C98.008 37.4297 97.561 37.7037 97.076 37.8837C96.849 37.9687 96.612 38.0347 96.373 38.0737C96.24 38.0957 96.104 38.1157 95.97 38.1177C96.25 38.2707 96.572 38.3577 96.896 38.3427C97.871 38.2977 98.845 37.6507 99.401 36.8687C99.855 36.2277 99.976 35.3547 99.573 34.6867ZM48.112 52.4377C52.043 52.0877 55.992 51.6467 59.737 50.3367C60.878 49.9377 61.99 49.4707 63.089 48.9727C63.067 48.9797 63.046 48.9867 63.024 48.9927C61.634 49.4087 60.222 49.7457 58.802 50.0457C55.818 50.6767 52.813 51.2137 49.818 51.7897C48.094 52.1217 46.369 52.4967 44.632 52.7557C45.792 52.6437 46.952 52.5407 48.112 52.4377ZM44.539 52.7657C44.528 52.7637 44.517 52.7627 44.508 52.7577C44.488 52.7627 44.468 52.7687 44.449 52.7747C44.478 52.7717 44.508 52.7687 44.539 52.7657ZM83.371 32.3597C81.538 32.6287 79.708 32.9287 77.892 33.2977C74.262 34.0347 70.667 35.0387 67.276 36.5467C63.844 38.0737 60.714 40.1637 57.71 42.4017C54.753 44.6057 51.891 46.9397 48.841 49.0177C47.075 50.2217 45.237 51.3467 43.317 52.2977C45.009 51.7507 46.68 51.1397 48.324 50.4477C52.124 48.8467 55.783 46.9307 59.386 44.9297C62.999 42.9237 66.564 40.8317 70.2 38.8677C73.842 36.8997 77.565 35.0567 81.431 33.5677C82.969 32.9757 84.539 32.4457 86.13 31.9847C85.21 32.1067 84.289 32.2247 83.371 32.3597ZM82.822 33.5277C78.934 34.9537 75.2 36.7637 71.553 38.7167C67.906 40.6697 64.343 42.7717 60.74 44.8037C57.148 46.8297 53.505 48.7827 49.73 50.4507C48.592 50.9537 47.437 51.4297 46.269 51.8757C48.251 51.3107 50.222 50.7067 52.176 50.0447C55.269 48.9967 58.323 47.8357 61.332 46.5657C64.355 45.2897 67.335 43.9077 70.26 42.4227C73.19 40.9347 76.064 39.3337 78.875 37.6327C81.684 35.9337 84.432 34.1357 87.11 32.2367C87.183 32.1847 87.26 32.1367 87.334 32.0857C85.81 32.5017 84.304 32.9837 82.822 33.5277ZM87.812 31.9587C86.637 32.8617 85.409 33.6997 84.181 34.5287C82.815 35.4517 81.431 36.3497 80.032 37.2207C77.251 38.9537 74.403 40.5807 71.502 42.1047C68.581 43.6387 65.609 45.0717 62.582 46.3847C59.541 47.7037 56.452 48.9107 53.322 50.0027C51.132 50.7667 48.92 51.4797 46.693 52.1357C47.525 51.9737 48.36 51.8217 49.192 51.6607C50.71 51.3667 52.229 51.0767 53.747 50.7787C56.651 50.2107 59.565 49.6627 62.409 48.8377C63.623 48.4857 64.797 48.0477 65.971 47.5947C67.437 46.8657 68.896 46.1187 70.375 45.4217C73.832 43.7947 77.517 42.5457 80.605 40.2357C83.549 38.0337 85.845 35.1167 88.036 32.1977C88.131 32.0707 88.231 31.9477 88.327 31.8217C88.154 31.8657 87.984 31.9137 87.812 31.9587ZM46.924 42.2247C47.143 41.4467 47.289 40.5707 47.032 39.7837C46.866 39.2737 46.514 38.8097 46.035 38.5697C46.487 39.6157 46.56 40.8137 46.372 41.9297C46.27 42.5317 46.09 43.1237 45.834 43.6787C45.715 43.9367 45.578 44.1867 45.427 44.4277C45.405 44.4627 45.381 44.5027 45.358 44.5407C46.146 44.0727 46.688 43.0597 46.924 42.2247ZM45.459 38.4087C45.271 38.5237 45.083 38.6377 44.9 38.7587C43.794 39.4907 42.735 40.4777 42.442 41.8257C42.281 42.5667 42.437 43.3937 42.888 43.9917C43.077 43.1307 43.624 42.3977 44.181 41.7057C44.551 41.2467 44.927 40.7817 45.184 40.2467C45.468 39.6547 45.509 39.0857 45.452 38.4417C45.449 38.4277 45.456 38.4197 45.459 38.4087ZM45.655 38.4307C45.647 38.4287 45.645 38.4227 45.638 38.4207C46.144 39.4067 45.422 40.6477 44.835 41.4217C44.177 42.2897 43.304 43.1727 43.165 44.2957C43.371 44.4797 43.613 44.6267 43.898 44.7157C44.208 44.8127 44.499 44.8227 44.768 44.7707C44.854 44.6117 44.988 44.4687 45.085 44.3227C45.249 44.0747 45.394 43.8137 45.521 43.5437C45.769 43.0157 45.945 42.4557 46.046 41.8817C46.247 40.7357 46.124 39.5907 45.81 38.4777C45.759 38.4607 45.709 38.4427 45.655 38.4307ZM40.991 35.2197C38.654 35.3787 36.332 35.6387 34.023 36.0897C31.021 36.6757 28.06 37.5047 25.204 38.6027C22.367 39.6937 19.609 41.0257 16.985 42.5597C14.357 44.0957 11.856 45.8457 9.54298 47.8257C7.66398 49.4327 5.89496 51.1517 4.24596 52.9887C7.29196 51.1077 10.403 49.3277 13.532 47.5957C18.059 45.0897 22.668 42.7287 27.379 40.5897C31.822 38.5707 36.364 36.7627 40.991 35.2197ZM39.225 36.5667C36.552 37.5137 33.908 38.5447 31.295 39.6557C23.248 43.0777 15.539 47.1997 8.00197 51.6157C8.85197 51.3727 9.71597 51.1857 10.562 51.0417C13.41 50.5587 16.307 50.5307 19.184 50.3767C21.873 50.2327 24.607 49.9577 27.153 49.0317C28.356 48.5937 29.516 48.0197 30.558 47.2727C31.56 46.5537 32.411 45.6727 33.162 44.6967C34.102 43.4747 34.91 42.1297 35.836 40.8877C36.752 39.3407 37.855 37.7777 39.225 36.5667ZM34.845 42.6677C34.488 43.2087 34.131 43.7497 33.758 44.2767C33.076 45.2387 32.321 46.1527 31.423 46.9217C30.479 47.7297 29.403 48.3767 28.27 48.8827C23.107 51.1847 17.384 50.5047 11.919 51.2117C10.471 51.3987 9.02498 51.6947 7.64198 52.1677C6.91198 52.4167 6.21296 52.7247 5.53596 53.0767C5.33196 53.1987 5.12797 53.3197 4.92497 53.4417C5.58597 53.2557 6.25896 53.1167 6.93996 53.0297C9.39396 52.7137 11.878 52.9397 14.341 52.9907C18.625 53.0797 23.062 52.6517 27.075 51.0677C28.183 50.6297 29.257 50.1017 30.269 49.4727C30.515 49.3197 30.773 49.1607 31.025 48.9887C32.594 47.0877 33.683 44.8437 34.845 42.6677ZM3.10997 55.0757C4.05997 54.9707 5.01496 54.9087 5.96996 54.8737C7.87996 54.8027 9.79198 54.8387 11.702 54.8637C15.121 54.9067 18.565 54.8697 21.919 54.1297C24.973 53.4557 27.978 52.1627 30.2 49.9047C30.273 49.8307 30.336 49.7497 30.406 49.6747C29.795 50.0617 29.164 50.4157 28.514 50.7337C26.605 51.6667 24.558 52.3047 22.475 52.7057C20.313 53.1217 18.11 53.3017 15.91 53.3337C13.451 53.3697 10.987 53.1487 8.53096 53.3177C7.25096 53.4057 5.97198 53.6057 4.74998 54.0037C4.16498 54.1947 3.59297 54.4297 3.04897 54.7187C2.83497 54.8317 2.63198 54.9597 2.43098 55.0907C2.40998 55.1177 2.38798 55.1437 2.36598 55.1697C2.61498 55.1377 2.86397 55.1027 3.10997 55.0757ZM2.83098 53.8807C4.53598 51.8647 6.38398 49.9677 8.37798 48.2367C10.693 46.2277 13.209 44.4207 15.827 42.8297C18.455 41.2317 21.212 39.8537 24.079 38.7397C26.926 37.6327 29.849 36.7207 32.838 36.0837C35.737 35.4657 38.699 35.0857 41.663 34.9857C41.712 34.9627 41.762 34.9387 41.813 34.9177C42.113 34.7947 42.42 34.6987 42.732 34.6147C39.92 34.4517 37.096 34.5407 34.298 34.8867C30.745 35.3257 27.245 36.1697 23.884 37.4037C20.733 38.5617 17.71 40.0627 14.886 41.8767C12.193 43.6067 9.67797 45.6137 7.38997 47.8517C5.24497 49.9497 3.35498 52.2457 1.58998 54.6627C1.99998 54.3977 2.41798 54.1417 2.83098 53.8807Z" fill="#171B1F"/>
<path d="M124.746 29.9187L124.276 29.7767C124.028 29.5717 123.923 29.2207 123.888 28.9127C123.874 28.7927 123.865 28.6717 123.859 28.5507C123.811 28.3867 123.761 28.2237 123.719 28.0587C123.443 26.9877 123.353 25.8167 123.887 24.8077C123.964 24.6617 124.17 24.6127 124.278 24.7597C124.837 25.5217 125.213 26.3977 125.38 27.3287C125.461 27.7777 125.487 28.2347 125.466 28.6897C125.45 29.0447 125.41 29.4477 125.151 29.7187C125.041 29.8337 124.896 29.9017 124.746 29.9187Z" fill="#540F12"/>
<path d="M51.565 29.4687L51.0847 29.9438C50.135 29.8089 49.1893 29.6523 48.249 29.4737C46.959 29.2287 45.59 28.8817 44.634 27.9207C44.492 27.7787 44.49 27.5377 44.698 27.4497C47.139 26.4167 49.539 27.9597 51.465 29.3357C51.518 29.3737 51.547 29.4197 51.565 29.4687Z" fill="#540F12"/>
<path d="M77.8842 21.4589C77.2802 21.0401 76.6855 20.6087 76.1069 20.1588C74.7049 19.0688 73.4059 17.7808 72.7089 16.1178C72.6529 15.9838 72.7439 15.7958 72.9009 15.7898C72.9029 15.7898 72.9039 15.7898 72.9059 15.7898C72.9929 15.6828 73.1509 15.6458 73.3069 15.7378C73.3419 15.7588 73.3759 15.7828 73.4109 15.8048C74.5199 15.9118 75.5179 16.5038 76.2839 17.3198C77.2599 18.3598 77.8139 19.7198 78.3159 21.0318C78.3369 21.0858 78.3359 21.1438 78.3209 21.1978L77.8842 21.4589Z" fill="#540F12"/>
<path d="M70.923 17.3127C71.213 17.3757 71.499 17.4567 71.776 17.5607C72.415 17.7997 73.009 18.1607 73.52 18.6107C73.685 18.7557 73.627 19.0527 73.39 19.0787C73.371 19.0807 73.351 19.0807 73.332 19.0827C73.318 19.0937 73.301 19.1037 73.279 19.1097C72.122 19.4437 70.832 19.1987 69.836 18.5247C69.612 18.3727 69.42 18.1377 69.446 17.8507C69.472 17.5647 69.701 17.3417 69.968 17.2637C70.276 17.1757 70.617 17.2467 70.923 17.3127Z" fill="#540F12"/>
<path d="M123.832 31.4175C123.883 31.6245 123.632 31.7585 123.464 31.6925C123.288 31.6235 123.121 31.5385 122.958 31.4465C122.514 31.2625 122.106 30.9715 121.768 30.6425C121.246 30.1355 120.862 29.4845 120.676 28.7805C120.638 28.6355 120.73 28.4205 120.919 28.4695C122.352 28.8435 123.478 29.9825 123.832 31.4175Z" fill="#540F12"/>
<path d="M41.247 27.9507C41.534 27.9757 41.83 28.0887 42.101 28.1827C42.411 28.2907 42.715 28.4177 43.009 28.5637C43.667 28.8907 44.28 29.3047 44.826 29.7957C45.025 29.9737 44.899 30.3127 44.619 30.2787C44.38 30.2497 44.144 30.2057 43.91 30.1547C43.855 30.1517 43.8 30.1437 43.744 30.1387C43.721 30.1407 43.697 30.1417 43.672 30.1367C43.66 30.1347 43.648 30.1297 43.636 30.1277C43.245 30.0827 42.857 29.9967 42.492 29.8807C42.166 29.7777 41.849 29.6507 41.543 29.4977C41.266 29.3597 40.953 29.2137 40.727 28.9987C40.51 28.7937 40.374 28.4727 40.562 28.1997C40.717 27.9757 40.993 27.9287 41.247 27.9507Z" fill="#540F12"/>
<path d="M134.541 40.4896C134.721 40.6516 134.988 40.8516 135.032 41.1036C135.083 41.3996 134.834 41.6016 134.559 41.5936C134.326 41.5866 134.088 41.4686 133.879 41.3706C133.67 41.2726 133.468 41.1576 133.275 41.0306C133.107 40.9556 132.942 40.8726 132.786 40.7716C132.29 40.4496 131.907 39.9886 131.636 39.4656C131.554 39.3076 131.722 39.0986 131.893 39.1376C132.871 39.3586 133.796 39.8146 134.541 40.4896Z" fill="#540F12"/>
</svg>
