<svg width="160" height="57" viewBox="0 0 160 57" fill="none" xmlns="http://www.w3.org/2000/svg">
<path d="M101.839 34.4756C100.501 33.7765 99.0365 33.3232 97.5687 32.9268L97.1078 33.3926C97.0918 33.4746 97.1049 33.5616 97.1649 33.6286C98.4599 35.1016 100.162 36.2276 102.034 36.8216C102.382 36.9956 102.733 37.1636 103.091 37.3186C103.422 37.4616 103.87 37.5796 104.191 37.3466C104.581 37.0626 104.468 36.5606 104.202 36.2346C103.588 35.4836 102.688 34.9206 101.839 34.4756Z" fill="#540F12"/>
<path d="M51.4478 37.0256L51.4548 37.4446C51.5078 37.4856 51.5768 37.5066 51.6478 37.4976C51.6648 37.5026 51.6828 37.5066 51.6998 37.5116C51.5348 37.5736 51.5178 37.7816 51.6398 37.9016C53.0658 39.3036 54.7498 40.4906 56.5968 41.2706C56.9988 41.4406 57.4578 41.5756 57.8838 41.4086C58.2118 41.2796 58.4628 40.9876 58.4668 40.6256C58.4708 40.2106 58.1608 39.8956 57.8568 39.6566C57.4708 39.3526 57.0508 39.0936 56.6178 38.8626C55.6948 38.3716 54.6998 38.0296 53.7098 37.7016C53.3248 37.5746 52.9378 37.4576 52.5498 37.3416C52.7388 37.2956 52.9258 37.2416 53.1018 37.1786C53.3608 37.0866 53.6118 36.9716 53.8518 36.8366C54.0618 36.7186 54.2888 36.5736 54.3848 36.3406C54.5818 35.8616 54.1138 35.5446 53.6888 35.5346C53.2358 35.5236 52.7758 35.7216 52.3998 35.9606C51.9948 36.2186 51.6628 36.5946 51.4478 37.0256Z" fill="#540F12"/>
<path d="M25.5085 41.8799L25.1118 42.2809C25.1028 42.2839 25.0948 42.2849 25.0858 42.2879C24.8708 42.3679 24.8718 42.6479 25.0258 42.7809C25.6688 43.3389 26.4328 43.7389 27.2558 43.9589C27.9998 44.1579 28.9188 44.2699 29.6688 44.0359C29.9778 43.9389 30.2648 43.7179 30.3108 43.3779C30.3578 43.0319 30.1548 42.6899 29.8738 42.5029C29.5258 42.2709 29.0868 42.2379 28.6838 42.1859C28.1798 42.1209 27.6758 42.0639 27.1698 42.0139C26.6168 41.9598 26.0629 41.9152 25.5085 41.8799Z" fill="#540F12"/>
<path d="M145.726 55.4027C149.554 55.4047 153.413 55.2617 157.208 55.8677C157.373 55.8937 157.535 55.9197 157.698 55.9447C157.866 56.0647 158.045 56.1697 158.231 56.2597C158.325 56.3047 158.422 56.3477 158.521 56.3807C158.633 56.4177 158.754 56.4587 158.869 56.4817C159.023 56.5017 159.123 56.3357 159.073 56.2117C159.024 56.0907 158.971 55.9717 158.915 55.8527C158.97 55.7507 158.963 55.6267 158.831 55.5387C158.794 55.5137 158.756 55.4897 158.718 55.4647C158.558 55.1727 158.377 54.8917 158.169 54.6317C158.121 54.5717 158.064 54.4997 158.002 54.4547C157.958 54.4227 157.9 54.3857 157.84 54.3657C156.421 52.1907 154.735 50.1767 152.943 48.3117C150.689 45.9667 148.173 43.8637 145.482 42.0397C142.711 40.1607 139.74 38.5767 136.63 37.3347C133.275 35.9947 129.761 35.0427 126.19 34.4977C122.618 33.9517 118.982 33.8157 115.379 34.0967C115.168 34.1127 114.957 34.1357 114.745 34.1557C111.662 33.2237 108.543 32.4147 105.389 31.7477C110.036 31.9287 114.698 32.0027 119.338 31.7927C120.724 31.7297 122.112 31.6227 123.476 31.3587C124.58 31.1447 125.867 30.8777 126.698 30.0587C127.383 29.3837 127.663 28.2487 127.004 27.4577C126.364 26.6897 125.2 26.4867 124.258 26.6327C123.185 26.7997 122.164 27.4467 121.728 28.4677C121.349 29.3547 121.425 30.4347 121.998 31.2127C121.993 31.2237 121.983 31.2297 121.979 31.2417C121.978 31.2447 121.979 31.2477 121.978 31.2497C120.873 31.3837 119.761 31.4467 118.649 31.4897C116.084 31.5887 113.516 31.5997 110.949 31.5757C108.577 31.5537 106.206 31.4827 103.834 31.4317C103.239 31.3157 102.644 31.2027 102.047 31.0977C100.967 30.9067 99.8838 30.7367 98.7988 30.5777C101.876 30.5838 104.959 30.3756 108.001 29.9438L107.521 29.4687C107.296 29.5007 107.071 29.5377 106.846 29.5687C104.033 29.9467 101.196 30.1707 98.3578 30.2077C97.5698 30.2177 96.7798 30.2147 95.9908 30.2017C87.2638 29.1537 78.4168 29.1177 69.6618 29.8357C71.0178 29.2397 72.3778 28.6517 73.7558 28.1067C75.8388 27.2837 77.9508 26.5327 80.0828 25.8457C80.2958 25.7767 80.5108 25.7117 80.7238 25.6447C80.7508 25.6517 80.7798 25.6497 80.8098 25.6367C82.5278 25.8867 84.2568 26.0607 85.9838 26.2327C87.8058 26.4137 89.6298 26.5777 91.4568 26.7077C95.0858 26.9657 98.7268 27.0967 102.364 26.9787C105.968 26.8607 109.542 26.4367 113.101 25.8707C116.602 25.3147 120.085 24.6467 123.594 24.1387C127.087 23.6337 130.612 23.2707 134.145 23.3667C134.568 23.3777 134.991 23.3967 135.414 23.4217C135.423 23.4267 135.432 23.4307 135.441 23.4357C135.804 23.6247 136.043 23.0357 135.683 22.8487C132.451 21.1667 129 19.9537 125.461 19.1027C121.894 18.2447 118.243 17.7667 114.586 17.5157C110.826 17.2577 107.03 17.1957 103.265 17.3897C99.4078 17.5897 95.5488 18.1627 91.9028 19.4737C90.1178 20.1157 88.3948 20.9157 86.7178 21.7997C85.0668 22.6697 83.4298 23.5947 81.8538 24.5937C81.6418 24.7277 81.4308 24.8637 81.2198 24.9997C77.0388 26.3247 72.9448 27.9207 68.9698 29.7747C68.8698 29.8217 68.7708 29.8717 68.6708 29.9207C67.3948 30.0337 66.1208 30.1687 64.8488 30.3117C67.9748 29.1117 71.0068 27.6017 73.9258 25.9787C75.5128 25.0967 77.0698 24.1597 78.5988 23.1797C79.4721 22.6199 80.3461 22.0519 81.2015 21.4588L80.7648 21.1977C80.1118 21.6467 79.4488 22.0827 78.7878 22.5147C75.7668 24.4867 72.6218 26.2727 69.3908 27.8767C67.6438 28.7437 65.8628 29.5327 64.0858 30.3337C64.0858 30.3237 64.0828 30.3147 64.0838 30.3047C64.0858 30.2857 64.0948 30.2657 64.1008 30.2467C64.1068 30.2267 64.1128 30.2067 64.1188 30.1857C64.1268 30.1587 64.0868 30.1407 64.0768 30.1687C64.0688 30.1907 64.0608 30.2137 64.0518 30.2367C64.0458 30.2537 64.0408 30.2787 64.0298 30.2927C64.0228 30.3017 64.0138 30.3057 64.0088 30.3167V30.3177C64.0048 30.3207 63.9978 30.3187 63.9958 30.3257L63.9828 30.3797C63.9528 30.3937 63.9218 30.4067 63.8918 30.4207C58.0458 31.1157 52.2408 32.1167 46.4808 33.3377C46.5778 33.2977 46.6758 33.2597 46.7728 33.2187C47.8318 32.7727 48.8628 32.2607 49.8638 31.6987C50.9188 31.1067 51.9408 30.4587 52.9378 29.7747C53.7318 29.3907 54.5248 29.0077 55.3468 28.6867C55.6668 28.5617 55.9908 28.4517 56.3148 28.3407C57.3138 28.1267 58.2948 27.8217 59.2458 27.4627C60.7208 27.0807 62.2138 26.7647 63.7018 26.4367C67.4238 25.6157 71.1798 24.6457 74.3548 22.4477C76.0218 21.2937 77.5278 19.9237 79.0588 18.5987C80.6288 17.2397 82.2588 15.9847 84.0208 14.8837C87.5938 12.6527 91.4628 10.9567 95.1498 8.93069C98.5598 7.05769 101.896 4.9487 104.502 2.0197C104.688 1.8107 104.861 1.58969 105.039 1.37269C105.247 1.25169 105.452 1.12669 105.655 0.995694C105.886 0.846694 105.664 0.476696 105.419 0.575696C105.313 0.442696 105.099 0.387696 104.964 0.562696C104.864 0.692696 104.756 0.816693 104.65 0.941693C104.571 0.979693 104.493 1.01769 104.414 1.05569C104.358 1.04569 104.299 1.05869 104.247 1.10969C104.23 1.12669 104.214 1.1437 104.197 1.1607C103.624 1.4377 103.052 1.71369 102.47 1.97169C101.495 2.40269 100.503 2.7947 99.4998 3.1547C97.4618 3.8857 95.3788 4.4907 93.2828 5.0297C89.1798 6.0847 85.0128 6.86869 80.9108 7.92569C77.1218 8.90169 73.3658 10.1037 69.8598 11.8607C66.4238 13.5827 63.2838 15.8617 60.8098 18.8197C58.1858 21.9567 56.2148 25.5757 53.5858 28.7107C53.5158 28.7937 53.4388 28.8707 53.3688 28.9527C50.7978 30.7987 48.0538 32.3967 45.0608 33.4657C44.6358 33.6177 44.2118 33.7677 43.7898 33.9257C41.6708 34.3997 39.5588 34.9077 37.4518 35.4317C37.2858 35.4467 37.1188 35.4577 36.9528 35.4777C36.9058 35.4837 36.8888 35.5297 36.8958 35.5697C36.6158 35.6397 36.3348 35.7057 36.0548 35.7777C35.0308 36.0377 34.0078 36.3057 32.9858 36.5747C33.5708 36.2597 34.1488 35.9297 34.7148 35.6027C35.8558 34.9417 36.9738 34.2407 38.0368 33.4587C39.1618 32.6317 40.2288 31.7107 41.1888 30.6917C41.4428 30.4677 41.6958 30.2427 41.9508 30.0237C42.6198 29.4507 43.3058 28.8977 44.0068 28.3657C44.8038 27.7607 45.6228 27.1827 46.4568 26.6287C46.4648 26.6387 46.4748 26.6467 46.4828 26.6567C46.4848 26.6587 46.4858 26.6607 46.4888 26.6627C47.5618 27.9657 49.3548 28.4907 50.9648 27.9727C52.3848 27.5157 53.8168 26.1477 53.7358 24.5547C53.6988 23.8287 53.2288 23.1847 52.4668 23.1267C52.0128 23.0917 51.5808 23.2537 51.1748 23.4407C50.7368 23.6427 50.3108 23.8777 49.8868 24.1077C49.4398 24.3507 48.9958 24.6007 48.5568 24.8587C49.1848 24.3277 49.7738 23.7527 50.2938 23.1067C51.2798 21.8817 52.0958 20.3037 52.0638 18.6917C52.0498 17.9677 51.7818 17.2047 51.1458 16.7977C50.5238 16.3997 49.7948 16.5227 49.1988 16.9057C48.5408 17.3287 48.0788 17.9947 47.6958 18.6627C47.3098 19.3367 47.0088 20.0587 46.8028 20.8087C46.3458 22.4667 46.3338 24.2217 46.7808 25.8817C46.6308 26.0047 46.4808 26.1287 46.3318 26.2527C45.8408 26.5797 45.3548 26.9137 44.8778 27.2597C44.0738 27.8427 43.2938 28.4597 42.5318 29.0967C42.7058 28.8627 42.8748 28.6237 43.0368 28.3807C43.6958 27.3887 44.2878 26.3027 44.6378 25.1597C44.9718 24.0687 45.0328 22.8487 44.3488 21.8777C43.7638 21.0477 42.7338 20.6447 41.7698 21.0447C40.8048 21.4447 40.1658 22.4297 39.8678 23.3937C39.1818 25.6127 39.8698 28.1267 41.5608 29.7077C40.5028 30.9567 39.2748 32.0587 37.9628 33.0377C36.8638 33.8577 35.7078 34.6007 34.5238 35.2927C33.5588 35.8567 32.5448 36.3577 31.5908 36.9427C31.2988 37.0207 31.0068 37.1017 30.7148 37.1807C30.2048 37.2907 29.6988 37.4177 29.1978 37.5687C30.6548 36.4167 31.8988 34.9877 32.9148 33.4387C33.6628 32.2997 34.3148 31.0627 34.8098 29.7767L34.3398 29.9187C34.2568 30.1267 34.1708 30.3337 34.0808 30.5367C33.3268 32.2527 32.3138 33.8507 31.0908 35.2697C30.3858 36.0877 29.6048 36.8417 28.7938 37.5527C28.7428 37.5967 28.7378 37.6547 28.7578 37.7027C28.7148 37.7167 28.6728 37.7317 28.6298 37.7457C25.9178 38.4927 23.2118 39.2667 20.5138 40.0677C22.0068 39.3837 23.4458 38.5417 24.6838 37.4587C25.9528 36.3487 26.9858 35.0087 27.6398 33.4497C28.3578 31.7397 28.6668 29.8997 29.2568 28.1477C29.8528 26.3787 30.8898 24.8647 31.9798 23.3697C33.0578 21.8917 34.0818 20.4087 34.8278 18.7307C36.3198 15.3767 36.9378 11.7217 38.3578 8.34369C39.5088 5.60669 41.2648 2.88269 43.9308 1.42769C44.1528 1.35369 44.3728 1.27369 44.5968 1.20469C45.0378 1.06969 45.4778 0.938692 45.9148 0.791692C45.9648 0.774692 45.9958 0.743692 46.0178 0.707692C46.1978 0.671692 46.3798 0.638698 46.5598 0.599698C46.7768 0.552698 46.8688 0.206691 46.6178 0.126691C45.9438 -0.0873091 45.2468 -0.014303 44.5898 0.226697C44.2728 0.342697 43.9708 0.497691 43.6798 0.667691C43.4648 0.793691 43.2408 0.937697 43.0598 1.1157C42.1868 1.4417 41.3328 1.8257 40.5158 2.2267C38.8488 3.0447 37.2628 4.0307 35.7908 5.1607C32.8428 7.4257 30.3348 10.2697 28.4788 13.4917C27.5498 15.1047 26.7868 16.8087 26.2158 18.5807C25.5528 20.6387 25.0778 22.8457 23.8018 24.6357C22.6308 26.2777 20.8598 27.3947 19.7728 29.1047C18.6428 30.8827 18.4788 33.0237 18.1108 35.0457C17.9288 36.0447 17.6878 37.0367 17.2568 37.9607C16.8608 38.8077 16.3288 39.5867 15.6968 40.2747C15.0118 41.0217 14.1998 41.6597 13.3118 42.1617C12.4808 42.4717 11.6448 42.7617 10.8138 43.0427C10.6048 43.1137 10.4008 43.1877 10.1968 43.2647C9.99678 43.2987 9.79676 43.3297 9.59476 43.3517C9.51776 43.3597 9.50577 43.4307 9.53277 43.4837C7.66877 44.0887 5.80776 44.7007 3.95376 45.3277C2.64776 45.7697 1.34178 46.2137 0.033781 46.6497C-0.034219 46.6727 0.0107568 46.7727 0.0777568 46.7517C3.35476 45.7407 6.62778 44.7187 9.90378 43.7037C13.0258 42.9607 16.2018 42.4617 19.4078 42.2767C21.1908 42.1737 22.9778 42.1667 24.7608 42.2577C24.8778 42.2637 24.9948 42.2737 25.1118 42.2807L25.5084 41.8797C22.0945 41.6625 18.6591 41.8019 15.2748 42.3017C14.6568 42.3927 14.0408 42.5007 13.4278 42.6177C18.1038 41.1807 22.7888 39.7737 27.4998 38.4557C27.5538 38.5667 27.6758 38.6467 27.8238 38.5877C27.8538 38.5757 27.8848 38.5657 27.9148 38.5537C31.0888 40.0267 33.6698 42.4497 36.4548 44.5197C37.9408 45.6237 39.5068 46.6147 41.2228 47.3237C43.0998 48.0997 45.0828 48.5807 47.0618 49.0147C49.1128 49.4637 51.1618 49.8937 53.1758 50.4907C55.2248 51.0977 57.2398 51.8127 59.2498 52.5367C63.1768 53.9507 67.1178 55.4097 71.2408 56.1387C72.7738 56.4097 74.3268 56.5867 75.8788 56.6307C76.7118 56.6827 77.5468 56.6717 78.3768 56.5757C79.9468 56.4587 81.5028 56.1807 83.0228 55.6907C83.4968 55.5377 83.9628 55.3637 84.4228 55.1717C84.7518 55.0337 84.5318 54.5207 84.2028 54.6617C83.8508 54.8127 83.4938 54.9477 83.1338 55.0737C82.6618 55.1237 82.1878 55.1597 81.7138 55.1887C80.0518 54.9067 78.4048 54.6127 76.7788 54.1377C74.9378 53.5997 73.1428 52.9117 71.3938 52.1287C67.8368 50.5367 64.4778 48.5527 61.1478 46.5387C57.7928 44.5087 54.4478 42.4497 50.9268 40.7127C47.4818 39.0137 43.8638 37.6627 40.0628 37.0367C38.0358 36.7027 35.9658 36.5867 33.9158 36.7307C35.3348 36.3637 36.7568 36.0087 38.1808 35.6637C39.7448 35.6977 41.3068 35.7077 42.8688 35.8447C44.8238 36.0157 46.7668 36.3177 48.6838 36.7397C49.6148 36.9447 50.5378 37.1827 51.4548 37.4447L51.4478 37.0257C51.1678 36.9487 50.8888 36.8687 50.6078 36.7967C48.5048 36.2627 46.3638 35.8777 44.2068 35.6427C42.9978 35.5107 41.7858 35.4217 40.5698 35.3817C40.1878 35.3697 39.8058 35.3627 39.4238 35.3607C41.4928 34.8707 43.5678 34.4097 45.6488 33.9737C46.3088 33.9347 46.9698 33.8587 47.6238 33.8117C48.6248 33.7387 49.6278 33.6777 50.6308 33.6377C52.6488 33.5577 54.6748 33.5727 56.6858 33.7687C57.5788 33.8557 58.4658 33.9877 59.3458 34.1577C58.8168 34.7167 58.6878 35.5657 58.9118 36.2957C59.1808 37.1717 59.8978 37.8517 60.6768 38.2927C61.4918 38.7537 62.5028 38.9357 63.3468 38.4437C64.0918 38.0097 64.4048 37.1757 64.1488 36.3557C63.8738 35.4757 63.1148 34.9177 62.2858 34.5967C62.1168 34.5307 61.9418 34.4777 61.7678 34.4217C62.7178 34.5387 63.6778 34.5967 64.6368 34.5997C65.1448 35.0067 65.7628 35.3497 66.3658 35.5577C67.0128 35.7797 67.7378 35.8557 68.3888 35.6087C68.9328 35.4017 69.4198 34.9747 69.5948 34.4077C69.7598 33.8727 69.6708 33.2667 69.2888 32.8457C69.2808 32.8317 69.2758 32.8167 69.2668 32.8027C68.7598 32.0247 67.5048 32.0697 66.7258 32.2867C65.7068 32.5707 64.7918 33.3057 64.3818 34.2927C64.0108 34.2927 63.6398 34.2867 63.2698 34.2707C62.0098 34.2157 60.7528 34.0717 59.5078 33.8697C59.4858 33.8657 59.4688 33.8727 59.4558 33.8827C59.3718 33.8677 59.2878 33.8517 59.2048 33.8367C56.9498 33.4377 54.6558 33.3137 52.3678 33.3387C51.1068 33.3527 49.8468 33.4077 48.5878 33.4867C48.2948 33.5047 48.0018 33.5277 47.7078 33.5487C53.2738 32.4357 58.8808 31.5327 64.5278 30.9147C64.8188 30.8827 65.1098 30.8577 65.4008 30.8277C66.7318 31.0077 68.0538 31.2267 69.3668 31.5077C69.4868 31.5517 69.6098 31.5897 69.7268 31.6387C69.9618 31.7387 70.1938 31.8717 70.4448 31.9277C71.3528 33.2317 72.3288 34.4997 73.3388 35.7217C74.4918 37.1177 75.7268 38.4537 77.0938 39.6427C78.5178 40.8817 80.0938 41.9007 81.7648 42.7727C83.4728 43.6647 85.2508 44.4087 87.0068 45.1997C90.5978 46.8157 94.0068 48.8227 97.6588 50.3037C101.358 51.8037 105.252 52.4567 109.206 52.8477C112.874 53.2097 116.563 53.4277 120.192 54.1007C120.428 54.1497 120.662 54.2037 120.898 54.2477C121.005 54.2677 121.113 54.2837 121.221 54.3017C121.658 54.3947 122.094 54.4937 122.527 54.6037C122.805 54.6737 122.935 54.1877 122.656 54.1117C122.011 53.9367 121.361 53.7897 120.71 53.6537C120.025 53.4127 119.33 53.2017 118.65 52.9457C117.805 52.6277 116.976 52.2697 116.162 51.8787C114.517 51.0887 112.937 50.1687 111.409 49.1737C108.323 47.1657 105.445 44.8657 102.501 42.6607C99.5238 40.4307 96.4628 38.2767 93.1068 36.6487C89.7908 35.0407 86.2498 33.9567 82.6558 33.1707C79.0108 32.3737 75.2948 31.8187 71.5858 31.4107C71.2448 31.3737 70.9048 31.3417 70.5638 31.3117C70.2208 31.0077 69.8118 30.7857 69.3908 30.6067C69.2888 30.5637 69.1838 30.5247 69.0788 30.4887C73.0638 30.1627 77.0628 29.9867 81.0608 29.9857C85.3518 30.6777 89.6298 31.4127 93.8388 32.5157C94.9268 32.8007 96.0218 33.0837 97.1078 33.3927L97.5686 32.9268C96.9832 32.7687 96.3973 32.6197 95.8188 32.4677C93.5428 31.8687 91.2408 31.3597 88.9308 30.9097C87.1048 30.5547 85.2698 30.2427 83.4258 30.0007C86.3138 30.0507 89.1988 30.1937 92.0768 30.4447C97.0608 31.4107 101.936 32.8367 106.603 34.8607C107.918 35.4307 109.217 36.0417 110.492 36.6967C111.36 37.1427 112.234 37.5967 113.082 38.0907C111.855 38.4987 111.376 39.8957 111.475 41.1167C111.585 42.4707 112.114 44.0747 113.318 44.8387C114.212 45.4057 115.253 45.3517 116.044 44.7647C116.138 44.8097 116.265 44.7777 116.266 44.6457C116.266 44.6267 116.263 44.6087 116.262 44.5907C116.364 44.4957 116.463 44.3937 116.552 44.2787C117.385 43.2077 117.281 41.7647 116.642 40.6257C115.926 39.3497 114.692 38.5367 113.451 37.8307C112.08 37.0497 110.676 36.3237 109.254 35.6407C106.414 34.2777 103.479 33.1117 100.475 32.1637C98.7908 31.6317 97.0858 31.1657 95.3638 30.7817C96.1608 30.8747 96.9568 30.9727 97.7518 31.0827C103.204 31.8357 108.562 33.0437 113.817 34.6087C113.859 34.7247 113.96 34.8187 114.117 34.8017C114.202 34.7927 114.287 34.7867 114.372 34.7787C115.724 35.1887 117.071 35.6157 118.41 36.0717C119.359 36.7377 120.193 37.5537 120.939 38.4527C120.916 38.4437 120.895 38.4717 120.916 38.4907C121 38.5657 121.076 38.6467 121.157 38.7237C121.751 39.4697 122.29 40.2667 122.778 41.0867C124.084 43.2797 125.123 45.6507 126.533 47.7787C126.633 47.9817 126.769 48.1707 126.927 48.3447C127.245 48.7917 127.577 49.2297 127.941 49.6467C130.023 52.0257 132.862 53.5217 135.882 54.3487C139.092 55.2277 142.414 55.4017 145.726 55.4027ZM125.753 30.3507C124.74 30.8547 123.525 31.0417 122.412 31.1967C122.457 31.1557 122.494 31.1097 122.533 31.0647C122.885 31.0277 123.228 30.8127 123.496 30.6027C123.877 30.3057 124.179 29.9227 124.47 29.5407C124.785 29.1267 125.094 28.6957 125.507 28.3727C125.717 28.2087 125.949 28.0737 126.201 27.9867C126.452 27.9007 126.691 27.9127 126.95 27.8967C127.482 28.8567 126.601 29.9297 125.753 30.3507ZM125.476 27.1327C125.651 27.1097 125.846 27.1377 126.026 27.1207C126.311 27.2347 126.564 27.4047 126.764 27.6347C126.395 27.6077 125.995 27.7677 125.694 27.9457C125.269 28.1967 124.929 28.5607 124.622 28.9427C124.291 29.3537 123.994 29.7957 123.614 30.1637C123.436 30.3357 123.242 30.4957 123.027 30.6207C122.945 30.6687 122.86 30.7057 122.774 30.7397C122.857 30.6067 122.932 30.4687 122.994 30.3237C123.231 29.7707 123.346 29.1757 123.575 28.6197C123.799 28.0747 124.168 27.6167 124.706 27.3587C124.95 27.2427 125.21 27.1687 125.476 27.1327ZM122.008 28.6647C122.366 27.7527 123.249 27.1607 124.189 26.9817C124.437 26.9347 124.708 26.9137 124.983 26.9207C124.898 26.9487 124.811 26.9747 124.729 27.0117C124.238 27.2327 123.819 27.5957 123.544 28.0597C123.228 28.5947 123.094 29.1997 122.889 29.7787C122.791 30.0557 122.667 30.3247 122.51 30.5727C122.43 30.6997 122.341 30.8237 122.236 30.9317C122.229 30.9387 122.222 30.9457 122.214 30.9527C121.78 30.2827 121.713 29.4157 122.008 28.6647ZM130.824 21.3877C131.386 21.5977 131.945 21.8167 132.498 22.0507C128.926 21.3487 125.319 20.8347 121.692 20.5237C117.202 20.1387 112.687 20.0487 108.185 20.2437C103.67 20.4397 99.1668 20.9297 94.7148 21.7047C90.9988 22.3517 87.3208 23.2087 83.6978 24.2567C85.0348 23.7077 86.3708 23.1607 87.7318 22.6717C89.3198 22.1017 90.9288 21.5907 92.5548 21.1407C95.7818 20.2467 99.0728 19.5877 102.395 19.1667C105.721 18.7437 109.078 18.5567 112.43 18.6067C115.778 18.6577 119.123 18.9457 122.429 19.4727C125.265 19.9257 128.069 20.5777 130.824 21.3877ZM90.7788 20.4437C94.3438 19.0117 98.1158 18.3117 101.938 18.0367C105.691 17.7667 109.478 17.8097 113.233 18.0207C116.849 18.2237 120.456 18.6477 124 19.4057C124.397 19.4907 124.793 19.5807 125.188 19.6757C124.711 19.5827 124.234 19.4927 123.757 19.4077C120.429 18.8137 117.057 18.4637 113.679 18.3557C110.335 18.2487 106.984 18.3787 103.658 18.7457C100.298 19.1167 96.9628 19.7277 93.6908 20.5767C90.4438 21.4197 87.2388 22.4817 84.1588 23.8147C83.9398 23.9097 83.7238 24.0117 83.5068 24.1117C85.8698 22.7697 88.2478 21.4597 90.7788 20.4437ZM93.2148 22.5257C97.6198 21.7067 102.077 21.1697 106.55 20.9167C111.055 20.6627 115.575 20.6967 120.075 21.0267C122.872 21.2317 125.661 21.5497 128.433 21.9797C126.894 22.0057 125.356 22.0997 123.824 22.2437C120.46 22.5607 117.119 23.0667 113.779 23.5687C110.42 24.0737 107.057 24.5507 103.668 24.8057C100.21 25.0657 96.7398 25.1387 93.2728 25.1117C91.3288 25.0967 89.3848 25.0517 87.4418 24.9907C86.0968 24.9487 84.7438 24.8697 83.3948 24.8497C86.6288 23.9217 89.9068 23.1407 93.2148 22.5257ZM82.9608 24.4207C82.9608 24.4357 82.9598 24.4507 82.9668 24.4637C82.9128 24.4797 82.8578 24.4937 82.8038 24.5097C82.8558 24.4807 82.9088 24.4507 82.9608 24.4207ZM82.6338 25.0697C84.0368 25.1827 85.4528 25.2057 86.8568 25.2547C88.5798 25.3157 90.3038 25.3587 92.0278 25.3827C95.4478 25.4317 98.8708 25.3957 102.286 25.1907C105.688 24.9867 109.063 24.5647 112.433 24.0687C115.776 23.5757 119.117 23.0137 122.482 22.6907C124.384 22.5077 126.293 22.3887 128.204 22.3767C129.259 22.3697 130.309 22.4107 131.359 22.4747C131.918 22.5777 132.475 22.6857 133.032 22.7977C130.359 22.7967 127.688 23.0247 125.038 23.3747C121.525 23.8377 118.045 24.5147 114.554 25.1167C111.018 25.7267 107.47 26.2417 103.885 26.4357C100.221 26.6347 96.5478 26.5537 92.8878 26.3307C89.2318 26.1077 85.5868 25.7407 81.9428 25.3837C81.8408 25.3737 81.7388 25.3677 81.6368 25.3597C81.9658 25.2577 82.3008 25.1677 82.6338 25.0697ZM54.4028 28.7277C54.4558 28.6887 54.5068 28.6477 54.5598 28.6087C54.6118 28.6037 54.6638 28.5977 54.7158 28.5927C54.6128 28.6397 54.5068 28.6797 54.4028 28.7277ZM95.9548 7.96669C92.3758 10.0067 88.6008 11.6797 85.0578 13.7857C83.2628 14.8527 81.5488 16.0357 79.9448 17.3737C78.3988 18.6637 76.9398 20.0597 75.3378 21.2817C73.7738 22.4737 72.0858 23.4487 70.2538 24.1657C68.4608 24.8677 66.5918 25.3487 64.7178 25.7767C64.5438 25.8167 64.3678 25.8547 64.1928 25.8937C64.6728 25.7237 65.1458 25.5317 65.6078 25.3177C67.0588 24.6457 68.4178 23.7847 69.7038 22.8387C72.5068 20.7757 74.9918 18.3067 77.8748 16.3477C80.7098 14.4217 83.8388 12.9907 86.9868 11.6607C90.0238 10.3777 93.1038 9.1747 96.0418 7.6737C97.3628 6.9987 98.6508 6.25469 99.8818 5.42669C98.6248 6.35669 97.3008 7.19869 95.9548 7.96669ZM96.8168 6.8817C93.9688 8.4477 90.9718 9.67969 87.9778 10.9307C84.8948 12.2197 81.7998 13.5457 78.9578 15.3197C76.0378 17.1427 73.5468 19.5107 70.8598 21.6417C68.3058 23.6677 65.4788 25.5167 62.2388 26.1857C62.1608 26.2017 62.0828 26.2177 62.0058 26.2337C62.9418 25.7567 63.8558 25.2357 64.7448 24.6787C68.1598 22.5407 71.2248 19.9127 74.4408 17.4997C76.0778 16.2707 77.7588 15.0927 79.5338 14.0717C81.0648 13.1917 82.6618 12.4297 84.2838 11.7317C87.5478 10.3267 90.9148 9.17669 94.1868 7.78969C96.3408 6.87669 98.4658 5.8467 100.443 4.5877C99.2878 5.4317 98.0718 6.1927 96.8168 6.8817ZM101.708 3.2797C99.6908 4.7717 97.4778 5.9767 95.1758 7.0067C91.9608 8.4447 88.6278 9.59169 85.3728 10.9317C83.7428 11.6027 82.1298 12.3197 80.5728 13.1467C78.8528 14.0597 77.2178 15.1177 75.6378 16.2547C72.3778 18.6007 69.3488 21.2547 66.0318 23.5237C64.2068 24.7727 62.2808 25.9087 60.2498 26.7867C58.6208 27.1817 57.0098 27.6417 55.4618 28.2707C55.2708 28.3057 55.0778 28.3337 54.8858 28.3627C55.1318 28.1777 55.3788 27.9947 55.6208 27.8057C59.3798 24.8677 62.7858 21.5137 66.4718 18.4877C68.3178 16.9717 70.2358 15.5347 72.2738 14.2857C74.2138 13.0977 76.2718 12.1147 78.3828 11.2697C82.5818 9.5877 86.9658 8.44369 91.2928 7.15069C94.8228 6.09569 98.4018 4.9477 101.708 3.2797ZM80.9358 8.42669C82.1038 8.13269 83.2768 7.85869 84.4528 7.59569C86.0928 7.24469 87.7398 6.92569 89.3808 6.59169C91.4148 6.17869 93.4588 5.75869 95.4678 5.22069C94.5138 5.55469 93.5528 5.8707 92.5878 6.1727C88.2898 7.5157 83.9178 8.6327 79.6918 10.1977C77.5958 10.9747 75.5378 11.8637 73.5758 12.9377C71.5028 14.0727 69.5538 15.4167 67.6948 16.8727C63.9368 19.8147 60.5378 23.1777 56.8708 26.2277C56.4118 26.6097 55.9468 26.9857 55.4768 27.3567C56.2298 26.4567 56.9718 25.5477 57.7328 24.6547C58.8698 23.3207 60.0348 22.0137 61.2468 20.7457C63.6668 18.2127 66.2378 15.8377 69.1038 13.8137C72.0088 11.7627 75.1778 10.1857 78.5668 9.10769C79.3508 8.85869 80.1408 8.63569 80.9358 8.42669ZM60.0778 20.3707C61.2888 18.7717 62.6348 17.2947 64.1758 16.0087C65.6548 14.7747 67.2708 13.7107 68.9648 12.7967C70.5218 11.9567 72.1418 11.2437 73.7948 10.6177C72.4508 11.2687 71.1438 12.0027 69.8858 12.8347C66.9888 14.7517 64.3798 17.0817 61.9588 19.5657C59.5088 22.0797 57.2348 24.7777 55.0328 27.5097C54.9078 27.6647 54.7898 27.8227 54.6678 27.9787C54.5218 28.0907 54.3788 28.2057 54.2318 28.3157C56.4048 25.8517 58.0918 22.9927 60.0778 20.3707ZM51.5358 27.2217C50.0908 28.0347 48.2968 27.7667 47.0738 26.7007C48.1188 27.1427 49.2688 27.2417 50.3838 27.0167C50.9508 26.9017 51.5058 26.7077 52.0198 26.4427C52.3248 26.2857 52.6378 26.1007 52.9178 25.8807C52.5878 26.4357 52.0928 26.9087 51.5358 27.2217ZM53.2008 24.1487C53.3478 24.5177 53.2978 24.9737 53.1708 25.3577C52.7388 25.6467 52.3428 25.9677 51.8698 26.1977C51.3708 26.4407 50.8428 26.6107 50.2978 26.7147C49.2648 26.9117 48.1768 26.8567 47.1658 26.5607C49.2768 26.1377 51.3188 25.2697 53.1628 24.1817C53.1788 24.1727 53.1898 24.1607 53.2008 24.1487ZM50.7008 24.1357C51.3248 23.8147 52.3898 23.1797 53.0098 23.8337C53.0248 23.8497 53.0338 23.8687 53.0478 23.8847C53.0438 23.8867 53.0408 23.8857 53.0378 23.8877C51.0908 25.0357 49.0078 25.7957 46.8358 26.3807C47.3408 26.0517 47.8508 25.7297 48.3688 25.4227C49.1328 24.9707 49.9108 24.5417 50.7008 24.1357ZM51.2568 17.3657C51.5628 17.7307 51.7018 18.2477 51.7078 18.7177C51.7268 20.1937 50.9818 21.6387 50.0938 22.7727C49.4528 23.5897 48.6898 24.2927 47.8968 24.9627C48.6828 24.0477 49.3488 23.0367 49.8798 21.9467C50.5888 20.4887 50.9488 18.9477 51.2578 17.3687C51.2578 17.3667 51.2568 17.3657 51.2568 17.3657ZM50.4698 16.9197C50.5278 16.9277 50.5858 16.9337 50.6448 16.9507C50.8328 17.0077 50.9928 17.1027 51.1278 17.2237C51.0628 17.2207 50.9968 17.2547 50.9928 17.3347C50.9208 18.8907 50.3798 20.4347 49.7038 21.8237C49.0838 23.0967 48.2628 24.2667 47.3018 25.3067C49.0558 22.8657 50.0988 19.8907 50.4698 16.9197ZM47.2278 24.9637C47.2398 24.7447 47.2508 24.5257 47.2738 24.3087C47.3128 23.9407 47.3678 23.5747 47.4358 23.2117C47.5848 22.4207 47.8038 21.6437 48.0858 20.8897C48.5738 19.5897 49.2678 18.3787 50.1158 17.2817C49.6958 20.0327 48.6698 22.5897 47.2278 24.9637ZM46.9818 21.6387C47.2378 20.2687 47.8088 18.8237 48.7468 17.7727C49.0718 17.4087 49.5218 17.0437 50.0158 16.9357C49.0868 18.1107 48.3388 19.4237 47.8158 20.8277C47.5428 21.5617 47.3288 22.3177 47.1778 23.0857C47.0788 23.5887 46.9808 24.1317 46.9418 24.6667C46.7838 23.6657 46.7948 22.6387 46.9818 21.6387ZM44.0718 22.1947C44.7498 23.1847 44.5268 24.4457 44.1258 25.4977C43.7328 26.5287 43.1908 27.5047 42.5618 28.4097C42.5438 28.4357 42.5227 28.4607 42.5037 28.4867C43.1947 26.7017 43.4177 24.6937 43.2537 22.8187C43.2157 22.3817 43.2258 21.7557 42.9358 21.3917C42.9328 21.3887 42.9298 21.3867 42.9278 21.3837C43.3718 21.4837 43.7798 21.7677 44.0718 22.1947ZM42.0948 21.8797C42.1898 21.5507 42.5808 21.2767 42.7768 21.6847C42.9728 22.0927 42.9648 22.6617 42.9978 23.1067C43.0748 24.1467 43.0198 25.1937 42.8428 26.2217C42.6648 27.2577 42.3388 28.2437 41.9558 29.2167C41.9338 29.2437 41.9148 29.2727 41.8928 29.2997C41.8778 29.2867 41.8668 29.2707 41.8518 29.2567C41.8848 28.7727 41.7968 28.2617 41.7758 27.7807C41.7498 27.1947 41.7418 26.6087 41.7508 26.0217C41.7678 24.8957 41.8608 23.7797 41.9848 22.6617C42.0148 22.4027 42.0228 22.1297 42.0948 21.8797ZM40.1798 24.1337C40.3458 23.1987 40.7748 22.2407 41.5678 21.6757C41.5848 21.6637 41.6028 21.6547 41.6198 21.6437C40.9568 22.6877 40.6028 23.9297 40.5198 25.1567C40.4728 25.8577 40.5118 26.5687 40.6418 27.2587C40.6748 27.4357 40.7148 27.6117 40.7608 27.7857C40.1798 26.6747 39.9588 25.3747 40.1798 24.1337ZM41.5248 28.2547C41.5328 28.4757 41.5308 28.7067 41.5478 28.9347C41.5118 28.8947 41.4818 28.8497 41.4468 28.8077C41.3648 28.6117 41.2628 28.4177 41.1928 28.2237C41.0808 27.9097 40.9908 27.5877 40.9218 27.2617C40.7778 26.5797 40.7288 25.8827 40.7718 25.1877C40.8548 23.8607 41.2828 22.6147 41.9458 21.4727C41.9528 21.4697 41.9598 21.4657 41.9678 21.4627C41.8418 21.6337 41.7878 21.8447 41.7558 22.0517C41.7038 22.3837 41.6748 22.7217 41.6468 23.0567C41.5918 23.7077 41.5608 24.3597 41.5348 25.0117C41.5048 25.7367 41.4987 26.4607 41.5037 27.1857C41.5057 27.5427 41.5128 27.8987 41.5248 28.2547ZM32.7718 21.6697C31.7688 23.1637 30.6408 24.5767 29.7998 26.1737C29.2668 27.1867 28.9088 28.2647 28.5888 29.3567C28.6008 29.2397 28.6138 29.1227 28.6288 29.0067C28.7068 28.4317 28.7998 27.8587 28.9228 27.2907C29.1668 26.1647 29.5338 25.0537 30.0938 24.0427C31.2018 22.0417 33.0198 20.5827 34.3758 18.7667C33.9158 19.7727 33.3918 20.7457 32.7718 21.6697ZM35.2198 16.6667C35.1718 16.8067 35.1148 16.9427 35.0638 17.0817C34.8238 17.5677 34.5368 18.0287 34.2188 18.4677C33.5428 19.3997 32.7428 20.2307 31.9728 21.0827C31.2168 21.9197 30.4888 22.7827 29.9378 23.7727C29.3888 24.7587 29.0248 25.8357 28.7778 26.9347C28.6368 27.5627 28.5298 28.1987 28.4528 28.8377C28.3938 29.3257 28.3208 29.8297 28.3098 30.3267C28.2088 30.6827 28.1078 31.0387 28.0018 31.3927C27.9688 31.5007 27.9338 31.6077 27.8998 31.7147C28.0658 30.5137 28.0078 29.2617 28.1158 28.0737C28.2638 26.4457 28.7788 24.9027 29.5268 23.4547C31.0238 20.5567 33.2988 18.1897 35.1118 15.5027C35.4598 14.9867 35.7778 14.4507 36.0798 13.9047C35.8088 14.8327 35.5318 15.7567 35.2198 16.6667ZM19.2058 31.2487C19.5108 30.2347 19.9828 29.3127 20.6618 28.4977C21.3248 27.7017 22.1078 27.0177 22.8378 26.2847C23.5458 25.5737 24.1748 24.8147 24.6608 23.9327C25.1828 22.9847 25.5448 21.9597 25.8688 20.9297C26.1848 19.9237 26.4688 18.9077 26.8298 17.9157C27.0138 17.4107 27.2178 16.9147 27.4328 16.4227C27.2458 17.0447 27.0838 17.6727 26.9408 18.3057C26.5618 19.9957 26.2678 21.7337 25.5978 23.3407C24.1988 26.6957 21.4808 29.2627 19.6438 32.3567C19.2238 33.0637 18.8468 33.7937 18.5378 34.5467C18.7248 33.4397 18.8818 32.3247 19.2058 31.2487ZM17.7968 37.5127C17.7898 37.6027 17.7758 37.6917 17.7718 37.7827C17.7708 37.7977 17.7938 37.8017 17.7958 37.7857C17.8158 37.6297 17.8438 37.4777 17.8698 37.3247C18.0928 36.7087 18.2468 36.0757 18.3738 35.4367C19.3028 32.8607 21.0688 30.6417 22.7168 28.4537C23.7678 27.0587 24.7958 25.6317 25.5478 24.0487C26.2808 22.5037 26.6738 20.8667 27.0318 19.2027C27.2328 18.2667 27.4338 17.3287 27.7148 16.4127C27.9998 15.4837 28.4238 14.6467 28.8308 13.7707C28.8448 13.7397 28.8388 13.7137 28.8258 13.6907C30.3998 10.9947 32.4398 8.57269 34.8208 6.55469C36.3028 5.29869 37.9098 4.20769 39.6108 3.29069C37.9128 4.56969 36.3908 6.09669 35.0498 7.73369C32.6188 10.7007 30.7868 14.1207 29.3508 17.6657C28.5818 19.5637 27.9128 21.5007 27.3148 23.4587C26.7328 25.3637 26.2408 27.2937 25.6958 29.2097C25.1758 31.0387 24.5798 32.8677 23.6458 34.5327C22.7698 36.0947 21.5798 37.4417 20.1748 38.5487C18.5108 39.8597 16.6178 40.8257 14.6568 41.6307C16.0528 40.5687 17.1658 39.1337 17.7968 37.5127ZM16.4178 41.2987C17.3788 40.8467 18.3168 40.3477 19.2058 39.7647C20.6288 38.8317 21.9208 37.6937 22.9448 36.3287C24.0738 34.8237 24.8448 33.0807 25.4428 31.3057C26.0648 29.4627 26.5188 27.5687 27.0478 25.6977C27.6048 23.7267 28.2138 21.7687 28.9178 19.8437C30.2738 16.1327 32.0158 12.5307 34.3718 9.34569C35.4458 7.89369 36.6338 6.52369 37.9558 5.29069C39.0528 4.26769 40.2398 3.3717 41.4858 2.5477C41.4368 2.5957 41.3868 2.64269 41.3388 2.69069C40.2368 3.81569 39.3728 5.15169 38.6638 6.55269C37.7348 8.38969 37.1178 10.3497 36.5408 12.3227C36.4638 12.5117 36.3818 12.6987 36.2918 12.8827C35.9348 13.6137 35.5168 14.3107 35.0768 14.9937C34.2088 16.3407 33.2288 17.6097 32.2688 18.8917C30.3978 21.3917 28.5038 24.0867 28.0208 27.2457C27.8768 28.1867 27.8678 29.1407 27.8258 30.0897C27.7818 31.0867 27.6608 32.0467 27.4078 33.0137C27.4038 33.0307 27.4098 33.0437 27.4128 33.0587C26.9598 34.1517 26.3798 35.1747 25.5788 36.0927C23.3238 38.6767 20.1638 40.0317 16.9888 41.1267C16.7988 41.1847 16.6078 41.2397 16.4178 41.2987ZM60.5328 52.5227C58.5548 51.8117 56.5798 51.0907 54.5758 50.4557C52.6028 49.8297 50.6038 49.3267 48.5808 48.8907C46.5818 48.4597 44.5698 48.0507 42.6308 47.3927C40.8108 46.7747 39.1318 45.8987 37.5548 44.8037C34.6378 42.7777 32.0648 40.1797 28.8368 38.6287C28.7068 38.5667 28.5748 38.5097 28.4438 38.4507C28.4488 38.4507 28.4528 38.4507 28.4568 38.4507C30.0338 39.0647 31.5768 39.7207 33.0768 40.5107C34.6518 41.3397 36.1768 42.2597 37.7138 43.1567C39.2188 44.0347 40.7318 44.8997 42.2998 45.6607C43.9458 46.4597 45.6478 47.1097 47.4038 47.6237C51.0468 48.6897 54.8188 49.2667 58.4288 50.4537C62.0538 51.6457 65.3888 53.5387 68.9338 54.9297C69.5498 55.1717 70.1788 55.3987 70.8178 55.6047C67.2988 54.9347 63.8968 53.7327 60.5328 52.5227ZM80.4198 55.7807C78.4198 56.1527 76.3608 56.2217 74.3258 56.0697C72.8598 55.8477 71.4208 55.4557 70.0248 54.9587C66.4678 53.6927 63.1717 51.8007 59.6287 50.4987C56.0887 49.1967 52.3538 48.5947 48.7178 47.6357C46.9378 47.1667 45.1868 46.5987 43.5018 45.8527C41.9088 45.1467 40.3758 44.3137 38.8598 43.4567C35.8238 41.7397 32.8288 39.8807 29.5508 38.6517C29.3458 38.5747 29.1408 38.5027 28.9338 38.4357C30.5108 38.3777 32.0848 38.4037 33.6578 38.5757C35.5408 38.7817 37.4118 39.1407 39.2438 39.6157C43.0018 40.5887 46.6178 42.0617 50.1048 43.7547C53.6288 45.4657 57.0008 47.4557 60.4368 49.3317C63.9058 51.2257 67.4588 53.0167 71.2368 54.2097C73.0788 54.7917 74.9678 55.2367 76.8848 55.4817C78.1588 55.6447 79.4698 55.7317 80.7678 55.6907C80.6528 55.7207 80.5358 55.7507 80.4198 55.7807ZM38.9398 37.3827C42.7338 37.8677 46.3848 39.1027 49.8448 40.7057C53.4008 42.3537 56.7628 44.3797 60.1188 46.3947C63.4188 48.3767 66.7278 50.3587 70.2188 51.9897C73.3338 53.4447 76.6468 54.6777 80.0598 55.2237C79.4278 55.2227 78.7968 55.2057 78.1678 55.1557C76.2168 54.9987 74.2848 54.6227 72.4028 54.0877C68.5948 53.0047 65.0108 51.2837 61.5318 49.4187C58.0758 47.5657 54.6908 45.5817 51.1758 43.8397C47.7138 42.1237 44.1338 40.6097 40.4098 39.5587C36.7788 38.5337 33.0188 37.9777 29.2408 38.1547C29.1458 38.1587 29.0508 38.1707 28.9558 38.1767C32.1638 37.1327 35.5968 36.9557 38.9398 37.3827ZM69.2748 34.4467C69.0488 34.9577 68.5288 35.2817 67.9988 35.4017C67.3958 35.5387 66.7618 35.4107 66.1988 35.1797C66.0898 35.1347 65.9888 35.0767 65.8848 35.0237C66.5808 35.2357 67.3128 35.3127 68.0238 35.0857C68.4028 34.9647 68.7608 34.7517 69.0398 34.4687C69.1648 34.3427 69.2938 34.1857 69.3838 34.0137C69.3728 34.1597 69.3368 34.3067 69.2748 34.4467ZM69.0828 33.9577C69.1998 33.8497 69.2888 33.7187 69.3448 33.5777C69.3478 33.5877 69.3478 33.5977 69.3498 33.6077C69.2188 33.8627 69.1168 34.1197 68.9078 34.3377C68.6358 34.6207 68.2768 34.8167 67.8998 34.9217C66.9928 35.1747 65.9998 34.8597 65.1348 34.5897C65.1268 34.5867 65.1208 34.5917 65.1138 34.5907C65.1088 34.5877 65.1038 34.5847 65.0978 34.5817C65.9008 34.5687 66.7018 34.5257 67.4918 34.4367C68.0308 34.3747 68.6628 34.3447 69.0828 33.9577ZM65.0698 34.2727C65.5998 33.8837 66.2138 33.5547 66.8488 33.3967C67.5438 33.2237 68.2718 33.2167 68.9708 33.3627C68.9998 33.3687 69.0218 33.3617 69.0388 33.3477C68.9658 33.6497 68.5808 33.8907 68.2738 33.9637C67.7638 34.0847 67.2208 34.1187 66.7008 34.1727C66.1578 34.2297 65.6138 34.2577 65.0698 34.2727ZM66.5028 32.7407C67.1748 32.4727 68.3568 32.2957 68.9088 32.9097C69.0038 33.0157 69.0418 33.1197 69.0498 33.2197C69.0368 33.2017 69.0198 33.1867 68.9938 33.1817C67.5808 32.8907 65.9888 33.2257 64.8758 34.1617C65.2458 33.5197 65.8048 33.0187 66.5028 32.7407ZM62.3758 34.9847C63.1398 35.3377 63.8648 35.9917 63.8928 36.8917C63.8978 37.0397 63.8708 37.1757 63.8308 37.3057C63.7288 37.0677 63.5478 36.8357 63.4288 36.6997C63.0908 36.3127 62.7078 35.9557 62.3088 35.6337C61.9108 35.3117 61.4868 35.0277 61.0418 34.7757C60.8148 34.6477 60.5838 34.5277 60.3468 34.4167C60.2698 34.3807 60.1878 34.3397 60.1038 34.2997C60.8778 34.4637 61.6628 34.6557 62.3758 34.9847ZM60.0898 34.6677C60.3068 34.7607 60.5208 34.8627 60.7308 34.9717C61.1598 35.1947 61.5708 35.4517 61.9658 35.7317C62.3468 36.0017 62.7148 36.2977 63.0518 36.6217C63.2258 36.7897 63.3918 36.9707 63.5198 37.1767C63.5718 37.2617 63.6138 37.3517 63.6478 37.4447C63.5528 37.3977 63.4568 37.3537 63.3658 37.3057C63.1588 37.1937 62.9547 37.0757 62.7537 36.9517C62.3727 36.7157 62.0048 36.4597 61.6508 36.1847C61.0408 35.7097 60.4888 35.1697 59.9518 34.6157C59.9988 34.6317 60.0458 34.6487 60.0898 34.6677ZM61.4918 36.3937C61.8528 36.6787 62.2288 36.9437 62.6188 37.1867C62.8088 37.3057 63.0018 37.4187 63.1978 37.5277C63.3258 37.5987 63.4578 37.6777 63.5938 37.7407C63.5368 37.8117 63.4648 37.8697 63.3948 37.9287C63.2048 37.8667 63.0048 37.8627 62.8068 37.8257C62.5708 37.7817 62.3378 37.7197 62.1128 37.6347C61.6618 37.4647 61.2408 37.2107 60.8818 36.8897C60.2048 36.2847 59.7978 35.4407 59.6618 34.5507C60.1778 35.2497 60.8098 35.8547 61.4918 36.3937ZM59.5128 34.6867C59.6118 35.5897 60.0458 36.4437 60.7028 37.0717C61.0778 37.4297 61.5248 37.7037 62.0098 37.8837C62.2368 37.9687 62.4738 38.0347 62.7128 38.0737C62.8458 38.0957 62.9818 38.1157 63.1158 38.1177C62.8358 38.2707 62.5138 38.3577 62.1898 38.3427C61.2148 38.2977 60.2408 37.6507 59.6848 36.8687C59.2308 36.2277 59.1098 35.3547 59.5128 34.6867ZM110.974 52.4377C107.043 52.0877 103.094 51.6467 99.3488 50.3367C98.2078 49.9377 97.0958 49.4707 95.9968 48.9727C96.0188 48.9797 96.0398 48.9867 96.0618 48.9927C97.4518 49.4087 98.8638 49.7457 100.284 50.0457C103.268 50.6767 106.273 51.2137 109.268 51.7897C110.992 52.1217 112.717 52.4967 114.454 52.7557C113.294 52.6437 112.134 52.5407 110.974 52.4377ZM114.547 52.7657C114.558 52.7637 114.569 52.7627 114.578 52.7577C114.598 52.7627 114.618 52.7687 114.637 52.7747C114.608 52.7717 114.578 52.7687 114.547 52.7657ZM75.7148 32.3597C77.5478 32.6287 79.3778 32.9287 81.1938 33.2977C84.8238 34.0347 88.4188 35.0387 91.8098 36.5467C95.2418 38.0737 98.3718 40.1637 101.376 42.4017C104.333 44.6057 107.195 46.9397 110.245 49.0177C112.011 50.2217 113.849 51.3467 115.769 52.2977C114.077 51.7507 112.406 51.1397 110.762 50.4477C106.962 48.8467 103.303 46.9307 99.6998 44.9297C96.0868 42.9237 92.5218 40.8317 88.8858 38.8677C85.2438 36.8997 81.5208 35.0567 77.6548 33.5677C76.1168 32.9757 74.5468 32.4457 72.9558 31.9847C73.8758 32.1067 74.7968 32.2247 75.7148 32.3597ZM76.2638 33.5277C80.1518 34.9537 83.8858 36.7637 87.5328 38.7167C91.1798 40.6697 94.7428 42.7717 98.3458 44.8037C101.938 46.8297 105.581 48.7827 109.356 50.4507C110.494 50.9537 111.649 51.4297 112.817 51.8757C110.835 51.3107 108.864 50.7067 106.91 50.0447C103.817 48.9967 100.763 47.8357 97.7538 46.5657C94.7308 45.2897 91.7508 43.9077 88.8258 42.4227C85.8958 40.9347 83.0218 39.3337 80.2108 37.6327C77.4018 35.9337 74.6538 34.1357 71.9758 32.2367C71.9028 32.1847 71.8258 32.1367 71.7518 32.0857C73.2758 32.5017 74.7818 32.9837 76.2638 33.5277ZM71.2738 31.9587C72.4488 32.8617 73.6768 33.6997 74.9048 34.5287C76.2708 35.4517 77.6548 36.3497 79.0538 37.2207C81.8348 38.9537 84.6828 40.5807 87.5838 42.1047C90.5048 43.6387 93.4768 45.0717 96.5038 46.3847C99.5448 47.7037 102.634 48.9107 105.764 50.0027C107.954 50.7667 110.166 51.4797 112.393 52.1357C111.561 51.9737 110.726 51.8217 109.894 51.6607C108.376 51.3667 106.857 51.0767 105.339 50.7787C102.435 50.2107 99.5208 49.6627 96.6768 48.8377C95.4628 48.4857 94.2888 48.0477 93.1148 47.5947C91.6488 46.8657 90.1898 46.1187 88.7108 45.4217C85.2538 43.7947 81.5688 42.5457 78.4808 40.2357C75.5368 38.0337 73.2408 35.1167 71.0498 32.1977C70.9548 32.0707 70.8548 31.9477 70.7588 31.8217C70.9318 31.8657 71.1018 31.9137 71.2738 31.9587ZM112.162 42.2247C111.943 41.4467 111.797 40.5707 112.054 39.7837C112.22 39.2737 112.572 38.8097 113.051 38.5697C112.599 39.6157 112.526 40.8137 112.714 41.9297C112.816 42.5317 112.996 43.1237 113.252 43.6787C113.371 43.9367 113.508 44.1867 113.659 44.4277C113.681 44.4627 113.705 44.5027 113.728 44.5407C112.94 44.0727 112.398 43.0597 112.162 42.2247ZM113.627 38.4087C113.815 38.5237 114.003 38.6377 114.186 38.7587C115.292 39.4907 116.351 40.4777 116.644 41.8257C116.805 42.5667 116.649 43.3937 116.198 43.9917C116.009 43.1307 115.462 42.3977 114.905 41.7057C114.535 41.2467 114.159 40.7817 113.902 40.2467C113.618 39.6547 113.577 39.0857 113.634 38.4417C113.637 38.4277 113.63 38.4197 113.627 38.4087ZM113.431 38.4307C113.439 38.4287 113.441 38.4227 113.448 38.4207C112.942 39.4067 113.664 40.6477 114.251 41.4217C114.909 42.2897 115.782 43.1727 115.921 44.2957C115.715 44.4797 115.473 44.6267 115.188 44.7157C114.878 44.8127 114.587 44.8227 114.318 44.7707C114.232 44.6117 114.098 44.4687 114.001 44.3227C113.837 44.0747 113.692 43.8137 113.565 43.5437C113.317 43.0157 113.141 42.4557 113.04 41.8817C112.839 40.7357 112.962 39.5907 113.276 38.4777C113.327 38.4607 113.377 38.4427 113.431 38.4307ZM118.095 35.2197C120.432 35.3787 122.754 35.6387 125.063 36.0897C128.065 36.6757 131.026 37.5047 133.882 38.6027C136.719 39.6937 139.477 41.0257 142.101 42.5597C144.729 44.0957 147.23 45.8457 149.543 47.8257C151.422 49.4327 153.191 51.1517 154.84 52.9887C151.794 51.1077 148.683 49.3277 145.554 47.5957C141.027 45.0897 136.418 42.7287 131.707 40.5897C127.264 38.5707 122.722 36.7627 118.095 35.2197ZM119.861 36.5667C122.534 37.5137 125.178 38.5447 127.791 39.6557C135.838 43.0777 143.547 47.1997 151.084 51.6157C150.234 51.3727 149.37 51.1857 148.524 51.0417C145.676 50.5587 142.779 50.5307 139.902 50.3767C137.213 50.2327 134.479 49.9577 131.933 49.0317C130.73 48.5937 129.57 48.0197 128.528 47.2727C127.526 46.5537 126.675 45.6727 125.924 44.6967C124.984 43.4747 124.176 42.1297 123.25 40.8877C122.334 39.3407 121.231 37.7777 119.861 36.5667ZM124.241 42.6677C124.598 43.2087 124.955 43.7497 125.328 44.2767C126.01 45.2387 126.765 46.1527 127.663 46.9217C128.607 47.7297 129.683 48.3767 130.816 48.8827C135.979 51.1847 141.702 50.5047 147.167 51.2117C148.615 51.3987 150.061 51.6947 151.444 52.1677C152.174 52.4167 152.873 52.7247 153.55 53.0767C153.754 53.1987 153.958 53.3197 154.161 53.4417C153.5 53.2557 152.827 53.1167 152.146 53.0297C149.692 52.7137 147.208 52.9397 144.745 52.9907C140.461 53.0797 136.024 52.6517 132.011 51.0677C130.903 50.6297 129.829 50.1017 128.817 49.4727C128.571 49.3197 128.313 49.1607 128.061 48.9887C126.492 47.0877 125.403 44.8437 124.241 42.6677ZM155.976 55.0757C155.026 54.9707 154.071 54.9087 153.116 54.8737C151.206 54.8027 149.294 54.8387 147.384 54.8637C143.965 54.9067 140.521 54.8697 137.167 54.1297C134.113 53.4557 131.108 52.1627 128.886 49.9047C128.813 49.8307 128.75 49.7497 128.68 49.6747C129.291 50.0617 129.922 50.4157 130.572 50.7337C132.481 51.6667 134.528 52.3047 136.611 52.7057C138.773 53.1217 140.976 53.3017 143.176 53.3337C145.635 53.3697 148.099 53.1487 150.555 53.3177C151.835 53.4057 153.114 53.6057 154.336 54.0037C154.921 54.1947 155.493 54.4297 156.037 54.7187C156.251 54.8317 156.454 54.9597 156.655 55.0907C156.676 55.1177 156.698 55.1437 156.72 55.1697C156.471 55.1377 156.222 55.1027 155.976 55.0757ZM156.255 53.8807C154.55 51.8647 152.702 49.9677 150.708 48.2367C148.393 46.2277 145.877 44.4207 143.259 42.8297C140.631 41.2317 137.874 39.8537 135.007 38.7397C132.16 37.6327 129.237 36.7207 126.248 36.0837C123.349 35.4657 120.387 35.0857 117.423 34.9857C117.374 34.9627 117.324 34.9387 117.273 34.9177C116.973 34.7947 116.666 34.6987 116.354 34.6147C119.166 34.4517 121.99 34.5407 124.788 34.8867C128.341 35.3257 131.841 36.1697 135.202 37.4037C138.353 38.5617 141.376 40.0627 144.2 41.8767C146.893 43.6067 149.408 45.6137 151.696 47.8517C153.841 49.9497 155.731 52.2457 157.496 54.6627C157.086 54.3977 156.668 54.1417 156.255 53.8807Z" fill="#171B1F"/>
<path d="M34.3397 29.9187L34.8097 29.7767C35.0577 29.5717 35.1627 29.2207 35.1977 28.9127C35.2117 28.7927 35.2207 28.6717 35.2267 28.5507C35.2747 28.3867 35.3247 28.2237 35.3667 28.0587C35.6427 26.9877 35.7327 25.8167 35.1987 24.8077C35.1217 24.6617 34.9157 24.6127 34.8077 24.7597C34.2487 25.5217 33.8727 26.3977 33.7057 27.3287C33.6247 27.7777 33.5987 28.2347 33.6197 28.6897C33.6357 29.0447 33.6757 29.4477 33.9347 29.7187C34.0447 29.8337 34.1897 29.9017 34.3397 29.9187Z" fill="#540F12"/>
<path d="M107.521 29.4687L108.001 29.9438C108.951 29.8089 109.896 29.6523 110.837 29.4737C112.127 29.2287 113.496 28.8817 114.452 27.9207C114.594 27.7787 114.596 27.5377 114.388 27.4497C111.947 26.4167 109.547 27.9597 107.621 29.3357C107.568 29.3737 107.539 29.4197 107.521 29.4687Z" fill="#540F12"/>
<path d="M81.2014 21.4589C81.8054 21.0401 82.4001 20.6087 82.9787 20.1588C84.3807 19.0688 85.6797 17.7808 86.3767 16.1178C86.4327 15.9838 86.3417 15.7958 86.1847 15.7898C86.1827 15.7898 86.1817 15.7898 86.1797 15.7898C86.0927 15.6828 85.9347 15.6458 85.7787 15.7378C85.7437 15.7588 85.7097 15.7828 85.6747 15.8048C84.5657 15.9118 83.5677 16.5038 82.8017 17.3198C81.8257 18.3598 81.2717 19.7198 80.7697 21.0318C80.7487 21.0858 80.7497 21.1438 80.7647 21.1978L81.2014 21.4589Z" fill="#540F12"/>
<path d="M88.1629 17.3127C87.8729 17.3757 87.5869 17.4567 87.3099 17.5607C86.6709 17.7997 86.0768 18.1607 85.5658 18.6107C85.4008 18.7557 85.4589 19.0527 85.6959 19.0787C85.7149 19.0807 85.7348 19.0807 85.7538 19.0827C85.7678 19.0937 85.7848 19.1037 85.8068 19.1097C86.9638 19.4437 88.2538 19.1987 89.2498 18.5247C89.4738 18.3727 89.6659 18.1377 89.6399 17.8507C89.6139 17.5647 89.3848 17.3417 89.1178 17.2637C88.8098 17.1757 88.4689 17.2467 88.1629 17.3127Z" fill="#540F12"/>
<path d="M35.2538 31.4175C35.2028 31.6245 35.4538 31.7585 35.6218 31.6925C35.7978 31.6235 35.9648 31.5385 36.1278 31.4465C36.5718 31.2625 36.9798 30.9715 37.3178 30.6425C37.8398 30.1355 38.2238 29.4845 38.4098 28.7805C38.4478 28.6355 38.3558 28.4205 38.1668 28.4695C36.7338 28.8435 35.6078 29.9825 35.2538 31.4175Z" fill="#540F12"/>
<path d="M117.839 27.9507C117.552 27.9757 117.256 28.0887 116.985 28.1827C116.675 28.2907 116.371 28.4177 116.077 28.5637C115.419 28.8907 114.806 29.3047 114.26 29.7957C114.061 29.9737 114.187 30.3127 114.467 30.2787C114.706 30.2497 114.942 30.2057 115.176 30.1547C115.231 30.1517 115.286 30.1437 115.342 30.1387C115.365 30.1407 115.389 30.1417 115.414 30.1367C115.426 30.1347 115.438 30.1297 115.45 30.1277C115.841 30.0827 116.229 29.9967 116.594 29.8807C116.92 29.7777 117.237 29.6507 117.543 29.4977C117.82 29.3597 118.133 29.2137 118.359 28.9987C118.576 28.7937 118.712 28.4727 118.524 28.1997C118.369 27.9757 118.093 27.9287 117.839 27.9507Z" fill="#540F12"/>
<path d="M24.5448 40.4896C24.3648 40.6516 24.0978 40.8516 24.0538 41.1036C24.0028 41.3996 24.2518 41.6016 24.5268 41.5936C24.7598 41.5866 24.9978 41.4686 25.2068 41.3706C25.4158 41.2726 25.6178 41.1576 25.8108 41.0306C25.9788 40.9556 26.1438 40.8726 26.2998 40.7716C26.7958 40.4496 27.1788 39.9886 27.4498 39.4656C27.5318 39.3076 27.3638 39.0986 27.1928 39.1376C26.2148 39.3586 25.2898 39.8146 24.5448 40.4896Z" fill="#540F12"/>
</svg>
