<svg width="2400" height="1545" viewBox="0 0 2400 1545" fill="none" xmlns="http://www.w3.org/2000/svg">
<path d="M1200 622.14C1371.8 622.14 1511.07 482.869 1511.07 311.07C1511.07 139.271 1371.8 0 1200 0C1028.2 0 888.93 139.271 888.93 311.07C888.93 482.869 1028.2 622.14 1200 622.14Z" fill="url(#paint0_linear_771_327)"/>
<path d="M2400 1544.85V599.916C2397.47 599.296 2394.95 598.671 2392.42 598.064C2337.8 584.955 2283.79 570.035 2228.31 559.506C2200.94 554.311 2174.45 545.395 2145.79 547.541C2120.71 549.418 2095.85 549.827 2071.16 544.377C2029.5 535.181 1988.67 524.71 1952.94 502.544C1936.87 492.581 1918.49 485.445 1898.97 481.939C1877.89 478.153 1859.36 468.628 1839.01 463.356C1827.96 460.496 1816.92 461.291 1806.6 464.81C1772.1 476.56 1738.22 473.422 1704.59 462.516C1687.08 456.84 1668.55 455.052 1650.67 450.972C1629.29 446.092 1609.63 436.17 1587.47 433.374C1572.88 431.533 1558.12 430.632 1543.44 429.364C1533.73 428.526 1525.27 424.688 1516.77 421.037C1503.36 415.279 1490.09 409.37 1474.88 407.789C1464.71 406.732 1455.35 409.067 1446.32 412.394C1437.68 415.581 1429.06 416.074 1419.8 415.48C1410.53 414.886 1401.01 415.112 1391.82 416.276C1377.61 418.076 1363.51 417.67 1349.39 416.507C1334.99 415.321 1320.49 414.879 1306.75 418.738C1286.12 424.53 1268.15 419.832 1250.76 410.604C1226.82 397.902 1203.17 384.754 1178.84 372.629C1161.45 363.964 1144.13 365.137 1128.5 376.84C1126.54 378.305 1124.72 378.562 1121.96 377.892C1099.41 372.422 1076.45 368.539 1053.17 366.5C1022.89 363.848 1002.83 378.071 986.137 397.769C970.328 416.427 955.151 435.547 935.131 451.212C921.919 461.55 906.837 465.979 889.002 464.273C877.629 463.185 866.119 462.979 854.661 462.805C835.718 462.517 818.377 456.959 800.896 451.481C784.045 446.2 766.73 445.922 749.215 449.151C743.052 450.287 736.676 451.261 730.42 451.17C712.987 450.916 698.476 456.58 686.609 467.117C671.827 480.243 656.83 492.707 635.547 497.739C627.5 499.641 620.02 503.497 614.602 509.028C604.897 518.935 591.703 521.851 578.108 524.454C555.792 528.727 534.145 536.333 510.788 535.421C500.122 535.004 489.535 533.257 478.876 532.495C461.24 531.234 445.033 534.951 430.609 543.978C413.546 554.657 393.184 556.556 373.503 560.273C341.879 566.246 311.862 576.906 280.703 584.194C267.49 587.285 253.958 589.421 240.483 591.578C220.577 594.765 202.025 601.142 185.46 610.916C160.263 625.783 132.639 633.38 102.529 635.312C66.39 637.631 33.262 648.683 1.009 662.177C0.674 662.317 0.336 662.452 0 662.592V1544.85H2400Z" fill="url(#paint1_linear_771_327)"/>
<path d="M2400 1544.85V579.598C2393.56 581.067 2387.19 582.744 2380.94 584.7C2322.71 602.916 2262.99 612.239 2201.07 612.508C2178.26 612.607 2156.5 619.316 2135.46 626.83C2108.83 636.339 2081.58 643.687 2052.96 647.095C2020.42 650.968 1990.99 662.223 1962.98 676.578C1943.79 686.417 1923.72 693.488 1901.15 695.553C1872.98 698.13 1849.29 710.216 1826.89 724.539C1785.25 751.158 1796.58 746.639 1747.91 741.683C1695.04 736.301 1645.08 743.371 1599.44 768.663C1577.43 780.861 1553.79 790.029 1528.26 795.38C1509.31 799.35 1491.52 806.159 1474.58 814.315C1463.04 819.871 1454.16 819.032 1444.43 811.167C1415.88 788.094 1384.6 768.165 1350.72 751.247C1319.89 735.853 1287.38 727.662 1251.62 731.707C1234.67 733.623 1221.19 726.14 1207.25 719.863C1179.2 707.23 1150.79 695.488 1119.1 691.298C1084.8 686.765 1052.68 694.51 1020.88 704.185C996.2 711.69 972.263 720.778 948.44 730.05C930.674 736.965 913.167 737.569 894.605 732.468C857.898 722.382 819.817 716.313 784.295 702.628C766.085 695.613 746.534 695.888 727.348 700.915C716.45 703.77 705.373 705.072 694.012 704.501C673.432 703.467 655.074 708.526 639.368 720.091C632.711 724.993 626.07 726.542 617.477 724.281C598.696 719.339 579.458 718.608 559.965 720.724C547.437 722.084 535.11 719.737 522.894 717.678C500.844 713.962 479.851 716.421 460.921 726.824C431.089 743.218 397.349 748.805 363.991 756.728C320.881 766.966 276.264 770.983 233.691 781.828C202.196 789.851 172.142 793.693 139.717 788.671C111.198 784.254 82.658 791.517 54.072 792.386C35.68 792.946 17.852 795.989 0 799.047V1544.85H2400Z" fill="url(#paint2_linear_771_327)"/>
<path d="M2400 1544.85V895.771C2393.05 893.993 2386.11 892.211 2379.18 890.375C2350.28 882.709 2321 880.941 2291.52 886.937C2260.02 893.342 2229.43 891.375 2198.83 882.51C2175.57 875.772 2151.84 870.012 2126.75 874.884C2114.78 877.209 2103.7 881.456 2093.36 886.937C2071.16 898.697 2047.3 902.745 2021.57 900.64C2011.2 899.792 2000.63 899.962 1990.22 900.561C1978.57 901.232 1969.17 896.57 1959.34 892.519C1955.57 890.967 1951.81 889.391 1948.07 887.79C1921.47 876.408 1895.57 863.801 1870.4 850.198C1857.83 843.406 1845.43 836.366 1833.22 829.106C1827.1 825.472 1821.03 821.781 1814.99 818.041C1809.36 814.547 1803.5 811.466 1798.63 807.271C1797.13 805.972 1795.35 804.731 1793.75 803.573C1791.43 801.908 1789 800.853 1786.52 799.265C1783.59 797.388 1782.05 794.348 1778.92 792.679C1774.5 790.329 1770.34 787.354 1766.4 784.158C1764.67 782.752 1762.99 781.814 1760.78 780.898C1759.06 780.185 1757.1 779.728 1755.45 778.917C1753.43 777.927 1754.41 777.709 1753.5 777.215C1751.81 776.293 1748.64 775.964 1746.74 775.528C1739.86 773.939 1733.21 772.782 1727 769.609C1725.39 768.787 1723.71 768.061 1722.11 767.242C1721.3 766.83 1720.45 765.838 1719.74 765.536C1718.48 765.007 1716.25 765.37 1714.87 765.075C1712.71 764.612 1710.55 763.763 1708.56 762.916C1706.46 762.023 1704.86 761.203 1702.59 761.153C1697.48 761.041 1693.2 762.812 1688.59 764.52C1687.15 765.054 1685.66 765.318 1684.24 765.857C1683.59 766.104 1682.93 766.726 1682.27 766.895C1681.69 767.042 1680.83 766.838 1680.33 766.989C1679.24 767.324 1678.64 768.234 1677.44 768.703C1675.6 769.417 1674.2 770.236 1672.44 771.044C1669.15 772.55 1665.29 773.365 1662.03 774.934C1658.02 776.861 1654.57 781.054 1651.54 783.908C1650.38 785.001 1649.12 785.86 1647.97 786.919C1645.29 789.4 1643.2 792.409 1640.52 794.895C1639.96 795.418 1639.53 795.884 1638.81 796.265C1638.49 796.431 1637.55 796.244 1637.19 796.463C1635.04 797.801 1633.32 800.61 1631.4 802.245C1627.01 805.989 1622.16 809.207 1617.81 812.974C1615.54 814.939 1612.79 816.079 1610.27 817.721C1607.27 819.668 1604.48 821.66 1602.14 824.226C1601.1 825.36 1600.2 826.682 1599.34 827.83C1599.16 828.06 1599.36 828.455 1599.22 828.692C1595.92 834.035 1589.25 838.104 1583.68 841.286C1567.15 850.741 1547.79 855.419 1528.09 856.137C1483.56 857.761 1445.53 873.185 1411.45 897.343C1397.8 907.019 1383.26 915.688 1367.61 922.938C1353.66 929.395 1341.24 928.679 1328.41 920.39C1304.67 905.056 1284.54 886.307 1262.53 869.352C1247.12 857.488 1231.24 846.286 1209.82 843.594C1194.86 841.715 1181.77 845.726 1169.7 852.934C1164.52 856.032 1159.12 858.278 1152.7 858.169C1097.42 857.238 1051.37 876.1 1011.22 907.73C994.276 921.076 975.197 931.008 952.948 936.552C933.222 941.467 916.836 951.878 900.986 962.868C895.619 966.59 889.937 969.969 884.43 973.541C873.788 980.443 862.469 981.346 849.66 978.258C789.334 963.713 727.988 952.936 666.766 941.725C617.07 932.624 572.713 944.1 531.602 968.149C498.529 987.496 462.79 996.816 422.468 991.516C404.787 989.192 386.907 991.296 369.519 995.011C356.47 997.799 344.034 996.713 331.854 992.116C295.413 978.363 258.4 965.626 225.802 945.27C207.883 934.08 187.653 930.838 166.085 933.933C159.71 934.848 155.805 933.662 153.284 928.1C150.449 921.846 146.64 915.917 143.13 909.901C131.787 890.457 114.938 876.37 90.214 870.77C75.326 867.397 63.749 860.489 54.49 850.01C39.816 833.401 21.464 822.009 0 815.12V1544.85H2400Z" fill="url(#paint3_linear_771_327)"/>
<path d="M2400 1544.85V1049.02C2386.83 1055.31 2373.66 1061.58 2360.39 1067.71C2351.61 1071.76 2342.7 1075.88 2333.33 1078.68C2304.14 1087.39 2277.49 1100.08 2251.17 1114C2220.31 1130.33 2185.76 1132.49 2152.3 1121.99C2097.85 1104.91 2045.92 1082.62 1994.35 1059.7C1955.46 1042.42 1913.04 1034.89 1869.82 1031.41C1848.97 1029.73 1829.53 1035.31 1811.37 1044.21C1803.8 1047.92 1795.71 1050.54 1787.11 1051.77C1774.17 1053.61 1762.16 1057.55 1750.81 1063.2C1738.33 1069.41 1724.62 1071.51 1710.45 1071.76C1697.27 1071.99 1684.32 1073.45 1671.76 1076.96C1655.26 1081.58 1638.63 1080.37 1622.33 1076.93C1596.43 1071.46 1569.24 1073.02 1543.83 1067.23C1515.78 1060.83 1490.88 1061.62 1467.1 1076.61C1460.62 1080.69 1452.61 1081.87 1444.71 1082.68C1425.38 1084.66 1408.65 1094.07 1389.78 1097.25C1378 1099.24 1366.44 1101.37 1356.73 1108.06C1355.85 1108.66 1354.13 1108.79 1352.96 1108.55C1333.4 1104.49 1312.96 1105.53 1293.5 1100.79C1290.57 1100.07 1287.01 1099.65 1284.23 1100.43C1273.13 1103.51 1263.68 1099.79 1254.59 1095.38C1204.27 1070.95 1154.94 1076.23 1105.75 1098.24C1092.29 1104.27 1078.02 1108.94 1064.22 1114.39C1045.14 1121.93 1026.06 1122.76 1006.13 1116.48C973.909 1106.34 940.71 1102.22 906.423 1106.21C889.077 1108.24 872.678 1103.92 856.6 1099.15C824.328 1089.59 791.925 1088.35 758.031 1092.59C720.313 1097.3 682.986 1089.77 645.572 1084.84C606.095 1079.64 571.617 1062.17 533.514 1054.02C511.823 1049.37 490.078 1045.19 467.855 1042.87C436.176 1039.55 409.207 1049.74 383.475 1064.06C371.867 1070.52 359.34 1075.13 345.87 1077.97C329.109 1081.51 313.486 1087.64 298.884 1095.5C286.219 1102.32 272.829 1106.3 257.889 1107.37C243.877 1108.38 230.549 1112.53 217.678 1117.3C205.518 1121.82 193.659 1121.93 181.17 1118.44C158.659 1112.16 135.946 1106.42 113.36 1100.33C73.162 1089.5 35.5 1093.17 0 1109.47V1544.85H2400Z" fill="url(#paint4_linear_771_327)"/>
<path d="M2400 1544.85V697.475C2395.29 703.344 2391.28 709.58 2388.18 716.15C2365.33 764.603 2334.91 808.815 2297.72 850.154C2268.39 882.748 2246.69 919.458 2242.29 961.834C2239.34 990.241 2227.07 1013.81 2201.09 1032.29C2184.91 1043.8 2176.62 1060.41 2169.73 1077.39C2162.85 1094.34 2158.04 1112.43 2144.61 1126.52C2125.22 1146.85 2109.91 1169.16 2097.03 1192.87C2095.74 1195.24 2094.38 1195.65 2091.56 1195.07C2073.49 1191.38 2055.28 1188.41 2036.73 1187.33C1993.65 1184.8 1955.15 1193.05 1925.2 1222.33C1916.69 1230.65 1907.25 1238.24 1898.05 1245.98C1891.63 1251.38 1882.92 1253.95 1874.64 1256.72C1868.89 1258.64 1861.64 1259.13 1856.01 1260.82C1852.46 1261.88 1848.23 1263.33 1844.9 1264.7C1841.87 1265.94 1842.68 1266.32 1840.22 1268.02C1835.41 1271.35 1827.34 1275.32 1827.32 1281.39C1818.13 1283.44 1809.86 1289.11 1800.49 1289.27C1787.35 1289.49 1774.76 1291.03 1761.79 1292.68C1759.9 1292.92 1757.27 1292.57 1755.51 1292.99C1753.64 1293.45 1753.44 1294.53 1751.56 1295C1749.46 1295.53 1747.19 1295.13 1744.9 1295.9C1740.22 1297.47 1736.31 1300.12 1731.53 1301.66C1728.58 1302.61 1726.35 1304.21 1723.8 1305.21C1722.02 1305.91 1720.55 1305.76 1718.73 1306.17C1716.41 1306.71 1715.37 1308.13 1713.31 1308.96C1711 1309.88 1709.79 1309.62 1707.41 1309.95C1701.84 1310.73 1694.81 1313.39 1689.83 1315.67C1685.64 1317.58 1684.69 1318.65 1680.08 1319.55C1677.79 1320 1675.68 1320.16 1673.43 1320.88C1669.57 1322.11 1664.31 1322.68 1661 1324.31C1657.18 1326.19 1655.68 1330.34 1652.57 1332.81C1649.62 1335.17 1646.35 1337.09 1643.41 1339.55C1635.92 1345.78 1627.56 1351.68 1619.63 1357.42C1615.94 1360.09 1611.34 1363.07 1607.17 1365.44C1599.6 1369.76 1587.4 1375.31 1578.42 1372.25C1557.16 1365 1535.04 1360.02 1513.24 1354.2C1485.37 1346.76 1460.11 1349.18 1437.07 1365.51C1428.76 1371.41 1419.06 1375.57 1408.54 1377.73C1392.55 1381.02 1377.38 1386.09 1363.01 1392.87C1349.89 1399.06 1336.55 1400.83 1321.84 1397.61C1308.31 1394.64 1294.14 1392.6 1280.34 1394.2C1247.28 1398.01 1217.3 1389.44 1187.58 1378.99C1168.96 1372.44 1150.16 1368.15 1130.02 1373.36C1117.36 1376.64 1106.28 1382.65 1095.01 1388.34C1093.18 1389.27 1091.62 1390.13 1089.42 1388.65C1076.09 1379.64 1061 1372.82 1048.48 1362.72C1038.36 1354.55 1025.1 1347.19 1010.67 1349.71C1001.42 1351.32 995.679 1352.99 987.212 1349.16C983.369 1347.43 979.515 1345.63 976.038 1343.37C969.848 1339.35 965.433 1333.86 960.752 1328.61C944.715 1310.6 928.557 1290.98 906.265 1278.35C899.766 1274.66 893.899 1270.67 887.628 1266.64C881.811 1262.9 875.836 1258.31 869.301 1256.67C862.846 1255.05 857.872 1252.66 850.974 1251.63C844.484 1250.66 838.643 1251.73 832.317 1250.04C824.846 1248.04 817.196 1245.74 809.405 1245.8C803.235 1245.84 797.061 1245.72 790.892 1245.79C786.624 1245.84 785.026 1244.82 781.112 1244.07C777.803 1243.43 773.77 1243.91 770.386 1243.91C764.19 1243.9 757.995 1243.91 751.799 1243.91C743.128 1243.9 738.685 1243.5 730.995 1240.13C728.099 1238.85 725.225 1237.62 722.261 1236.58C718.824 1235.37 716.878 1233.14 713.652 1232.48C708.553 1231.42 701.517 1232.65 696.228 1232.58C688.404 1232.49 677.445 1229.75 670.94 1225.95C668.816 1224.71 666.941 1222.68 664.778 1221.32C659.88 1218.25 653.34 1216.91 649.275 1213.3C644.58 1209.14 645.586 1208 638.54 1208C634.51 1208 630.479 1207.99 626.449 1207.99C620.452 1207.99 614.445 1208.08 609.085 1205.39C603.669 1202.68 599.754 1197.62 595.408 1193.75C587.23 1186.47 577.632 1180.31 570.002 1172.59C560.363 1162.84 552.797 1152 542.118 1142.94C531.919 1134.29 520.245 1126.97 507.34 1121.67C506.012 1121.12 504.672 1120.59 503.322 1120.09C493.657 1116.48 486.441 1111 480.945 1103.22C472.718 1091.59 461.726 1082.13 449.492 1073.5C418.086 1051.35 384.54 1031.06 362.335 1000.59C360.844 998.541 358.879 996.682 356.814 995.037C351.107 990.49 347.682 984.792 346.36 978.359C341.549 954.952 328.338 934.728 313.183 915.691C296.578 894.832 272.485 880.064 250.961 863.303C244.754 858.47 235.928 856.322 227.6 857.147C220.033 857.897 217.994 854.988 216.501 849.777C204.717 808.666 166.184 795.34 125.365 786.854C111.126 783.894 103.297 779.521 98.859 768.385C96.151 761.591 92.817 754.985 89.741 748.303C83.321 734.356 68.993 726.054 58.431 715.056C47.471 703.642 34.282 696.559 17.069 695.738C13.417 695.564 11.688 694.112 10.056 691.514C6.987 686.629 3.687 681.901 0 677.447V1544.85H2400Z" fill="#2C1F14"/>
<defs>
<linearGradient id="paint0_linear_771_327" x1="1200" y1="622.14" x2="1200" y2="0.000370824" gradientUnits="userSpaceOnUse">
<stop stop-color="#3D2B1A"/>
<stop offset="0.202417" stop-color="#7A6550"/>
<stop offset="0.402559" stop-color="#B8A485"/>
<stop offset="0.60026" stop-color="#CFC0A8"/>
<stop offset="0.802843" stop-color="#DDD4C4"/>
<stop offset="1" stop-color="#EDE5D8"/>
</linearGradient>
<linearGradient id="paint1_linear_771_327" x1="1200" y1="1544.85" x2="1200" y2="366.181" gradientUnits="userSpaceOnUse">
<stop stop-color="#DDD0BC"/>
<stop offset="0.4234" stop-color="#DBD0BB"/>
<stop offset="0.6288" stop-color="#D4C8B0"/>
<stop offset="0.7867" stop-color="#CABEA5"/>
<stop offset="0.9136" stop-color="#C4B49A"/>
</linearGradient>
<linearGradient id="paint2_linear_771_327" x1="1200" y1="1544.85" x2="1200" y2="579.598" gradientUnits="userSpaceOnUse">
<stop stop-color="#C9B89A"/>
<stop offset="0.2665" stop-color="#C6B595"/>
<stop offset="0.5303" stop-color="#BDAB8A"/>
<stop offset="0.7922" stop-color="#AE9A78"/>
<stop offset="1" stop-color="#A89070"/>
</linearGradient>
<linearGradient id="paint3_linear_771_327" x1="1200" y1="1544.85" x2="1200" y2="761.145" gradientUnits="userSpaceOnUse">
<stop offset="0.1073" stop-color="#B0956A"/>
<stop offset="0.4118" stop-color="#A89065"/>
<stop offset="0.7418" stop-color="#9C8258"/>
<stop offset="1" stop-color="#8A6A48"/>
</linearGradient>
<linearGradient id="paint4_linear_771_327" x1="1200" y1="1544.85" x2="1200" y2="1031.11" gradientUnits="userSpaceOnUse">
<stop offset="0.1073" stop-color="#7A5A38"/>
<stop offset="0.3361" stop-color="#755535"/>
<stop offset="0.5845" stop-color="#6B4C2E"/>
<stop offset="0.8412" stop-color="#5A3E24"/>
<stop offset="0.8508" stop-color="#5A3E24"/>
</linearGradient>
</defs>
</svg>
