<svg width="2400" height="1545" viewBox="0 0 2400 1545" fill="none" xmlns="http://www.w3.org/2000/svg">
<path d="M1200 846.14C1371.8 846.14 1511.07 706.869 1511.07 535.07C1511.07 363.271 1371.8 224 1200 224C1028.2 224 888.93 363.271 888.93 535.07C888.93 706.869 1028.2 846.14 1200 846.14Z" fill="url(#paint0_linear_797_102)"/>
<path d="M2400 1505.85V540.598C2393.56 542.067 2387.19 543.744 2380.94 545.7C2322.71 563.916 2262.99 573.239 2201.07 573.508C2178.26 573.607 2156.5 580.316 2135.46 587.83C2108.83 597.339 2081.58 604.687 2052.96 608.095C2020.42 611.968 1990.99 623.223 1962.98 637.578C1943.79 647.417 1923.72 654.488 1901.15 656.553C1872.98 659.13 1849.29 671.216 1826.89 685.539C1785.25 712.158 1796.58 707.639 1747.91 702.683C1695.04 697.301 1645.08 704.371 1599.44 729.663C1577.43 741.861 1579.53 748.149 1554 753.5C1535.05 757.47 1504.94 721.507 1488 729.663C1476.46 735.219 1471.23 737.528 1461.5 729.663C1432.95 706.59 1384.6 729.165 1350.72 712.247C1319.89 696.853 1287.38 688.662 1251.62 692.707C1234.67 694.623 1221.19 687.14 1207.25 680.863C1179.2 668.23 1150.79 656.488 1119.1 652.298C1084.8 647.765 1052.68 655.51 1020.88 665.185C996.2 672.69 972.263 681.778 948.44 691.05C930.674 697.965 913.167 698.569 894.605 693.468C857.898 683.382 819.817 677.313 784.295 663.628C766.085 656.613 746.534 656.888 727.348 661.915C716.45 664.77 705.373 666.072 694.012 665.501C673.432 664.467 655.074 669.526 639.368 681.091C632.711 685.993 626.07 687.542 617.477 685.281C598.696 680.339 579.458 679.608 559.965 681.724C547.437 683.084 535.11 680.737 522.894 678.678C500.844 674.962 479.851 677.421 460.921 687.824C431.089 704.218 397.349 709.805 363.991 717.728C320.881 727.966 276.264 731.983 233.691 742.828C202.196 750.851 172.142 754.693 139.717 749.671C111.198 745.254 82.658 752.517 54.072 753.386C35.68 753.946 17.852 756.989 0 760.047V1505.85H2400Z" fill="url(#paint1_linear_797_102)"/>
<path d="M2400 1544.85V895.771C2393.05 893.993 2386.11 892.211 2379.18 890.375C2350.28 882.709 2321 880.941 2291.52 886.937C2260.02 893.342 2229.43 891.375 2198.83 882.51C2175.57 875.772 2151.84 870.012 2126.75 874.884C2114.78 877.209 2103.7 881.456 2093.36 886.937C2071.16 898.697 2047.3 902.745 2021.57 900.64C2011.2 899.792 2000.63 899.962 1990.22 900.561C1978.57 901.232 1969.17 896.57 1959.34 892.519C1955.57 890.967 1951.81 889.391 1948.07 887.79C1921.47 876.408 1895.57 863.801 1870.4 850.198C1857.83 843.406 1845.43 836.366 1833.22 829.106C1827.1 825.472 1821.03 821.781 1814.99 818.041C1809.36 814.547 1803.5 811.466 1798.63 807.271C1797.13 805.972 1795.35 804.731 1793.75 803.573C1791.43 801.908 1789 800.853 1786.52 799.265C1783.59 797.388 1782.05 794.348 1778.92 792.679C1774.5 790.329 1770.34 787.354 1766.4 784.158C1764.67 782.752 1762.99 781.814 1760.78 780.898C1759.06 780.185 1757.1 779.728 1755.45 778.917C1753.43 777.927 1754.41 777.709 1753.5 777.215C1751.81 776.293 1748.64 775.964 1746.74 775.528C1739.86 773.939 1733.21 772.782 1727 769.609C1725.39 768.787 1723.71 768.061 1722.11 767.242C1721.3 766.83 1720.45 765.838 1719.74 765.536C1718.48 765.007 1716.25 765.37 1714.87 765.075C1712.71 764.612 1710.55 763.763 1708.56 762.916C1706.46 762.023 1704.86 761.203 1702.59 761.153C1697.48 761.041 1693.2 762.812 1688.59 764.52C1687.15 765.054 1685.66 765.318 1684.24 765.857C1683.59 766.104 1682.93 766.726 1682.27 766.895C1681.69 767.042 1680.83 766.838 1680.33 766.989C1679.24 767.324 1678.64 768.234 1677.44 768.703C1675.6 769.417 1674.2 770.236 1672.44 771.044C1669.15 772.55 1665.29 773.365 1662.03 774.934C1658.02 776.861 1654.57 781.054 1651.54 783.908C1650.38 785.001 1649.12 785.86 1647.97 786.919C1645.29 789.4 1643.2 792.409 1640.52 794.895C1639.96 795.418 1639.53 795.884 1638.81 796.265C1638.49 796.431 1637.55 796.244 1637.19 796.463C1635.04 797.801 1633.32 800.61 1631.4 802.245C1627.01 805.989 1622.16 809.207 1617.81 812.974C1615.54 814.939 1612.79 816.079 1610.27 817.721C1607.27 819.668 1604.48 821.66 1602.14 824.226C1601.1 825.36 1600.2 826.682 1599.34 827.83C1599.16 828.06 1599.36 828.455 1599.22 828.692C1595.92 834.035 1589.25 838.104 1583.68 841.286C1567.15 850.741 1547.79 855.419 1528.09 856.137C1483.56 857.761 1445.53 873.185 1411.45 897.343C1397.8 907.019 1383.26 915.688 1367.61 922.938C1353.66 929.395 1341.24 928.679 1328.41 920.39C1304.67 905.056 1284.54 886.307 1262.53 869.352C1247.12 857.488 1231.24 846.286 1209.82 843.594C1194.86 841.715 1181.77 845.726 1169.7 852.934C1164.52 856.032 1159.12 858.278 1152.7 858.169C1097.42 857.238 1051.37 876.1 1011.22 907.73C994.276 921.076 975.197 931.008 952.948 936.552C933.222 941.467 916.836 951.878 900.986 962.868C895.619 966.59 889.937 969.969 884.43 973.541C873.788 980.443 862.469 981.346 849.66 978.258C789.334 963.713 727.988 952.936 666.766 941.725C617.07 932.624 572.713 944.1 531.602 968.149C498.529 987.496 462.79 996.816 422.468 991.516C404.787 989.192 386.907 991.296 369.519 995.011C356.47 997.799 344.034 996.714 331.854 992.117C295.413 978.364 258.4 965.626 225.802 945.27C207.883 934.08 187.653 930.838 166.085 933.933C159.71 934.848 155.805 933.662 153.284 928.1C150.449 921.846 146.64 915.917 143.13 909.901C131.787 890.457 114.938 876.37 90.214 870.77C75.326 867.397 63.749 860.489 54.49 850.01C39.816 833.401 21.464 822.009 0 815.12V1544.85H2400Z" fill="url(#paint2_linear_797_102)"/>
<path d="M2400 1544.85V1049.02C2386.83 1055.31 2373.66 1061.58 2360.39 1067.71C2351.61 1071.76 2342.7 1075.88 2333.33 1078.68C2304.14 1087.39 2277.49 1100.08 2251.17 1114C2220.31 1130.33 2185.76 1132.49 2152.3 1121.99C2097.85 1104.91 2045.92 1082.62 1994.35 1059.7C1955.46 1042.42 1913.04 1034.89 1869.82 1031.41C1848.97 1029.73 1829.53 1035.31 1811.37 1044.21C1803.8 1047.92 1795.71 1050.54 1787.11 1051.77C1774.17 1053.61 1762.16 1057.55 1750.81 1063.2C1738.33 1069.41 1724.62 1071.51 1710.45 1071.76C1697.27 1071.99 1684.32 1073.45 1671.76 1076.96C1655.26 1081.58 1638.63 1080.37 1622.33 1076.93C1596.43 1071.46 1569.24 1073.02 1543.83 1067.23C1515.78 1060.83 1490.88 1061.62 1467.1 1076.61C1460.62 1080.69 1452.61 1081.87 1444.71 1082.68C1425.38 1084.66 1408.65 1094.07 1389.78 1097.25C1378 1099.24 1366.44 1101.37 1356.73 1108.06C1355.85 1108.66 1354.13 1108.79 1352.96 1108.55C1333.4 1104.49 1312.96 1105.53 1293.5 1100.79C1290.57 1100.07 1287.01 1099.65 1284.23 1100.43C1273.13 1103.51 1263.68 1099.79 1254.59 1095.38C1204.27 1070.95 1154.94 1076.23 1105.75 1098.24C1092.29 1104.27 1078.02 1108.94 1064.22 1114.39C1045.14 1121.93 1026.06 1122.76 1006.13 1116.48C973.909 1106.34 940.71 1102.22 906.423 1106.21C889.077 1108.24 872.678 1103.92 856.6 1099.15C824.328 1089.59 791.925 1088.35 758.031 1092.59C720.313 1097.3 682.986 1089.77 645.572 1084.84C606.095 1079.64 571.617 1062.17 533.514 1054.02C511.823 1049.37 490.078 1045.19 467.855 1042.87C436.176 1039.55 409.207 1049.74 383.475 1064.06C371.867 1070.52 359.34 1075.13 345.87 1077.97C329.109 1081.51 313.486 1087.64 298.884 1095.5C286.219 1102.32 272.829 1106.3 257.889 1107.37C243.877 1108.38 230.549 1112.53 217.678 1117.3C205.518 1121.82 193.659 1121.93 181.17 1118.44C158.659 1112.16 135.946 1106.42 113.36 1100.33C73.162 1089.5 35.5 1093.17 0 1109.47V1544.85H2400Z" fill="url(#paint3_linear_797_102)"/>
<path d="M2400 1544.85V697.475C2395.29 703.344 2391.28 709.58 2388.18 716.15C2365.33 764.603 2334.91 808.815 2297.72 850.154C2268.39 882.748 2246.69 919.458 2242.29 961.834C2239.34 990.241 2227.07 1013.81 2201.09 1032.29C2184.91 1043.8 2176.62 1060.41 2169.73 1077.39C2162.85 1094.34 2158.04 1112.43 2144.61 1126.52C2125.22 1146.85 2109.91 1169.16 2097.03 1192.87C2095.74 1195.24 2094.38 1195.65 2091.56 1195.07C2073.49 1191.38 2055.28 1188.41 2036.73 1187.33C1993.65 1184.8 1955.15 1193.05 1925.2 1222.33C1916.69 1230.65 1907.25 1238.24 1898.05 1245.98C1891.63 1251.38 1882.92 1253.95 1874.64 1256.72C1868.89 1258.64 1861.64 1259.13 1856.01 1260.82C1852.46 1261.88 1848.23 1263.33 1844.9 1264.7C1841.87 1265.94 1842.68 1266.32 1840.22 1268.02C1835.41 1271.35 1827.34 1275.32 1827.32 1281.39C1818.13 1283.44 1809.86 1289.11 1800.49 1289.27C1787.35 1289.49 1774.76 1291.03 1761.79 1292.68C1759.9 1292.92 1757.27 1292.57 1755.51 1292.99C1753.64 1293.45 1753.44 1294.53 1751.56 1295C1749.46 1295.53 1747.19 1295.13 1744.9 1295.9C1740.22 1297.47 1736.31 1300.12 1731.53 1301.66C1728.58 1302.61 1726.35 1304.21 1723.8 1305.21C1722.02 1305.91 1720.55 1305.76 1718.73 1306.17C1716.41 1306.71 1715.37 1308.13 1713.31 1308.96C1711 1309.88 1709.79 1309.62 1707.41 1309.95C1701.84 1310.73 1694.81 1313.39 1689.83 1315.67C1685.64 1317.58 1684.69 1318.65 1680.08 1319.55C1677.79 1320 1675.68 1320.16 1673.43 1320.88C1669.57 1322.11 1664.31 1322.68 1661 1324.31C1657.18 1326.19 1655.68 1330.34 1652.57 1332.81C1649.62 1335.17 1646.35 1337.09 1643.41 1339.55C1635.92 1345.78 1627.56 1351.68 1619.63 1357.42C1615.94 1360.09 1611.34 1363.07 1607.17 1365.44C1599.6 1369.76 1587.4 1375.31 1578.42 1372.25C1557.16 1365 1535.04 1360.02 1513.24 1354.2C1485.37 1346.76 1460.11 1349.18 1437.07 1365.51C1428.76 1371.41 1419.06 1375.57 1408.54 1377.73C1392.55 1381.02 1377.38 1386.09 1363.01 1392.87C1349.89 1399.06 1336.55 1400.83 1321.84 1397.61C1308.31 1394.64 1294.14 1392.6 1280.34 1394.2C1247.28 1398.01 1217.3 1389.44 1187.58 1378.99C1168.96 1372.44 1150.16 1368.15 1130.02 1373.36C1117.36 1376.64 1106.28 1382.65 1095.01 1388.34C1093.18 1389.27 1091.62 1390.13 1089.42 1388.65C1076.09 1379.64 1061 1372.82 1048.48 1362.72C1038.36 1354.55 1025.1 1347.19 1010.67 1349.71C1001.42 1351.32 995.679 1352.99 987.212 1349.16C983.369 1347.43 979.515 1345.63 976.038 1343.37C969.848 1339.35 965.433 1333.86 960.752 1328.61C944.715 1310.6 928.557 1290.98 906.265 1278.35C899.766 1274.66 893.899 1270.67 887.628 1266.64C881.811 1262.9 875.836 1258.31 869.301 1256.67C862.846 1255.05 857.872 1252.66 850.974 1251.63C844.484 1250.66 838.643 1251.73 832.317 1250.04C824.846 1248.04 817.196 1245.74 809.405 1245.8C803.235 1245.84 797.061 1245.72 790.892 1245.79C786.624 1245.84 785.026 1244.82 781.112 1244.07C777.803 1243.43 773.77 1243.91 770.386 1243.91C764.19 1243.9 757.995 1243.91 751.799 1243.91C743.128 1243.9 738.685 1243.5 730.995 1240.13C728.099 1238.85 725.225 1237.62 722.261 1236.58C718.824 1235.37 716.878 1233.14 713.652 1232.48C708.553 1231.42 701.517 1232.65 696.228 1232.58C688.404 1232.49 677.445 1229.75 670.94 1225.95C668.816 1224.71 666.941 1222.68 664.778 1221.32C659.88 1218.25 653.34 1216.91 649.275 1213.3C644.58 1209.14 645.586 1208 638.54 1208C634.51 1208 630.479 1207.99 626.449 1207.99C620.452 1207.99 614.445 1208.08 609.085 1205.39C603.669 1202.68 599.754 1197.62 595.408 1193.75C587.23 1186.47 577.632 1180.31 570.002 1172.59C560.363 1162.84 552.797 1152 542.118 1142.94C531.919 1134.29 520.245 1126.97 507.34 1121.67C506.012 1121.12 504.672 1120.59 503.322 1120.09C493.657 1116.48 486.441 1111 480.945 1103.22C472.718 1091.59 461.726 1082.13 449.492 1073.5C418.086 1051.35 384.54 1031.06 362.335 1000.59C360.844 998.541 358.879 996.682 356.814 995.037C351.107 990.49 347.682 984.792 346.36 978.359C341.549 954.952 328.338 934.728 313.183 915.691C296.578 894.832 272.485 880.064 250.961 863.303C244.754 858.47 235.928 856.322 227.6 857.147C220.033 857.897 217.994 854.988 216.501 849.777C204.717 808.666 166.184 795.34 125.365 786.854C111.126 783.894 103.297 779.521 98.859 768.385C96.151 761.591 92.817 754.985 89.741 748.303C83.321 734.356 68.993 726.054 58.431 715.056C47.471 703.642 34.282 696.559 17.069 695.738C13.417 695.564 11.688 694.112 10.056 691.514C6.987 686.629 3.687 681.901 0 677.447V1544.85H2400Z" fill="#540f12"/>
<defs>
<linearGradient id="paint0_linear_797_102" x1="1200" y1="846.14" x2="1200" y2="224" gradientUnits="userSpaceOnUse">
<stop stop-color="#3d0f10"/>
<stop offset="0.202417" stop-color="#7a2030"/>
<stop offset="0.402559" stop-color="#c06070"/>
<stop offset="0.60026" stop-color="#d49098"/>
<stop offset="0.802843" stop-color="#e0b8bc"/>
<stop offset="1" stop-color="#f0dcd8"/>
</linearGradient>
<linearGradient id="paint1_linear_797_102" x1="1200" y1="1505.85" x2="1200" y2="540.598" gradientUnits="userSpaceOnUse">
<stop stop-color="#d4848a"/>
<stop offset="0.2665" stop-color="#cf7a80"/>
<stop offset="0.5303" stop-color="#c46870"/>
<stop offset="0.7922" stop-color="#b55058"/>
<stop offset="1" stop-color="#a83240"/>
</linearGradient>
<linearGradient id="paint2_linear_797_102" x1="1200" y1="1544.85" x2="1200" y2="761.145" gradientUnits="userSpaceOnUse">
<stop offset="0.1073" stop-color="#a83240"/>
<stop offset="0.4118" stop-color="#9e2a38"/>
<stop offset="0.7418" stop-color="#8f2030"/>
<stop offset="1" stop-color="#7a1a1e"/>
</linearGradient>
<linearGradient id="paint3_linear_797_102" x1="1200" y1="1544.85" x2="1200" y2="1031.11" gradientUnits="userSpaceOnUse">
<stop offset="0.1073" stop-color="#7a1a1e"/>
<stop offset="0.3361" stop-color="#6e1620"/>
<stop offset="0.5845" stop-color="#621218"/>
<stop offset="0.8412" stop-color="#540f12"/>
<stop offset="0.8508" stop-color="#540f12"/>
</linearGradient>
</defs>
</svg>
