<svg width="382" height="386" viewBox="0 0 382 386" fill="none" xmlns="http://www.w3.org/2000/svg">
<path d="M344.595 297C349.024 330.855 324.381 361.801 289.983 364.721C282.908 365.323 275.962 364.639 269.402 362.864C252.339 358.234 234.605 356.595 217.077 358.888L212.356 359.5C194.305 361.86 176.933 367.837 161.184 376.971C153.742 381.287 145.222 384.076 136.002 384.857C105.266 387.457 77.2174 365.895 71.8224 335.528C68.2704 315.501 74.9814 296.24 88.0204 282.88C106.756 263.696 118.328 238.603 121.878 212.018C125.985 181.137 140.87 147.211 185.311 141.402C229.282 135.648 252.418 164.748 264.469 193.57C274.901 218.552 293.213 239.351 316.307 253.468C331.29 262.624 342.141 278.23 344.595 297Z" fill="#171B1F"/>
<path d="M91.6452 196.656C95.6382 227.193 78.4902 254.613 53.3372 257.901C28.1902 261.188 4.57022 239.1 0.577219 208.564C-3.41578 178.027 13.7322 150.607 38.8792 147.32C64.0262 144.032 87.6522 166.119 91.6452 196.656Z" fill="#171B1F"/>
<path d="M161.549 65.1162C165.542 95.6532 148.394 123.073 123.247 126.36C98.1013 129.653 74.4803 107.559 70.4813 77.0242C66.4893 46.4932 83.6363 19.0672 108.789 15.7792C133.937 12.4922 157.557 34.5802 161.549 65.1162Z" fill="#171B1F"/>
<path d="M381.109 158.799C385.102 189.336 367.954 216.756 342.807 220.043C317.655 223.337 294.034 201.243 290.042 170.713C286.049 140.176 303.196 112.75 328.343 109.463C353.49 106.176 377.116 128.263 381.109 158.799Z" fill="#171B1F"/>
<path d="M279.724 49.6603C283.717 80.1973 266.569 107.617 241.417 110.911C216.27 114.198 192.65 92.1103 188.657 61.5743C184.664 31.0373 201.812 3.61729 226.958 0.324294C252.106 -2.96371 275.732 19.1233 279.724 49.6603Z" fill="#171B1F"/>
</svg>
