<svg width="35" height="35" viewBox="0 0 35 35" fill="none" xmlns="http://www.w3.org/2000/svg">
<path d="M4.10326 0.19454C3.89178 0.0692993 3.65089 0.00219764 3.40505 5.30689e-05C3.15921 -0.0020915 2.91718 0.0607973 2.70355 0.18233C2.48992 0.303862 2.31229 0.479709 2.18873 0.692006C2.06516 0.904304 2.00004 1.14549 2 1.39106V33.6089C2.00004 33.8545 2.06516 34.0957 2.18873 34.308C2.31229 34.5203 2.48992 34.6961 2.70355 34.8177C2.91718 34.9392 3.15921 35.0021 3.40505 34.9999C3.65089 34.9978 3.89178 34.9307 4.10326 34.8055L31.3179 18.6965C31.5257 18.5733 31.6979 18.3982 31.8175 18.1885C31.9371 17.9787 32 17.7414 32 17.5C32 17.2586 31.9371 17.0213 31.8175 16.8115C31.6979 16.6018 31.5257 16.4267 31.3179 16.3035L4.10326 0.19454Z" fill="#2C1F14"/>
</svg>
