<svg width="382" height="386" viewBox="0 0 382 386" fill="none" xmlns="http://www.w3.org/2000/svg">
<path d="M37.0892 297.001C32.6602 330.856 57.3032 361.801 91.7012 364.721C98.7762 365.323 105.722 364.638 112.282 362.863C129.345 358.233 147.079 356.595 164.607 358.888L169.328 359.5C187.379 361.861 204.751 367.837 220.5 376.971C227.942 381.287 236.462 384.077 245.682 384.858C276.418 387.458 304.467 365.894 309.862 335.527C313.414 315.5 306.703 296.241 293.664 282.881C274.928 263.697 263.356 238.604 259.806 212.019C255.699 181.138 240.814 147.211 196.373 141.402C152.402 135.648 129.266 164.748 117.215 193.57C106.783 218.552 88.4712 239.352 65.3772 253.469C50.3932 262.625 39.5422 278.231 37.0892 297.001Z" fill="#171B1F"/>
<path d="M290.04 196.656C286.047 227.193 303.195 254.613 328.348 257.901C353.495 261.188 377.115 239.1 381.108 208.564C385.101 178.027 367.953 150.607 342.806 147.32C317.659 144.032 294.032 166.119 290.04 196.656Z" fill="#171B1F"/>
<path d="M220.136 65.1144C216.143 95.6514 233.291 123.071 258.438 126.358C283.584 129.651 307.205 107.557 311.204 77.0224C315.196 46.4914 298.049 19.0654 272.896 15.7774C247.749 12.4894 224.129 34.5774 220.136 65.1144Z" fill="#171B1F"/>
<path d="M0.577219 158.799C-3.41578 189.336 13.7322 216.756 38.8792 220.043C64.0312 223.337 87.6522 201.243 91.6442 170.713C95.6372 140.176 78.4902 112.75 53.3432 109.463C28.1962 106.175 4.56922 128.262 0.577219 158.799Z" fill="#171B1F"/>
<path d="M101.96 49.6603C97.967 80.1973 115.115 107.617 140.267 110.911C165.414 114.198 189.034 92.1103 193.027 61.5743C197.02 31.0373 179.872 3.61729 154.726 0.324294C129.579 -2.96371 105.952 19.1233 101.96 49.6603Z" fill="#171B1F"/>
</svg>
